<mxfile modified="2024-03-06T05:58:28.663Z" host="app.diagrams.net" agent="Mozilla/5.0 (Windows NT 10.0; Win64; x64) AppleWebKit/537.36 (KHTML, like Gecko) Chrome/122.0.0.0 Safari/537.36" etag="1aTet7gWYsCp9c-0r5kW" version="24.0.1" type="device">
  <diagram id="Ht1M8jgEwFfnCIfOTk4-" name="Page-1">
    <mxGraphModel dx="1034" dy="492" grid="1" gridSize="10" guides="1" tooltips="1" connect="1" arrows="1" fold="1" page="1" pageScale="1" pageWidth="1169" pageHeight="827" math="0" shadow="0">
      <root>
        <mxCell id="0" />
        <mxCell id="1" parent="0" />
        <mxCell id="6NimvU5wnSPPtsDhxzjk-1" value="" style="verticalLabelPosition=bottom;sketch=0;html=1;fillColor=#A153A0;strokeColor=#ffffff;verticalAlign=top;align=center;points=[[0,0.5,0],[0.125,0.25,0],[0.25,0,0],[0.5,0,0],[0.75,0,0],[0.875,0.25,0],[1,0.5,0],[0.875,0.75,0],[0.75,1,0],[0.5,1,0],[0.125,0.75,0]];pointerEvents=1;shape=mxgraph.cisco_safe.compositeIcon;bgIcon=ellipse;resIcon=mxgraph.cisco_safe.design.users;" parent="1" vertex="1">
          <mxGeometry x="45" y="241" width="50" height="50" as="geometry" />
        </mxCell>
        <mxCell id="6NimvU5wnSPPtsDhxzjk-18" value="" style="endArrow=classic;html=1;rounded=0;" parent="1" edge="1">
          <mxGeometry width="50" height="50" relative="1" as="geometry">
            <mxPoint x="349" y="295.5" as="sourcePoint" />
            <mxPoint x="349" y="440" as="targetPoint" />
          </mxGeometry>
        </mxCell>
        <mxCell id="6NimvU5wnSPPtsDhxzjk-20" value="" style="sketch=0;outlineConnect=0;fontColor=#232F3E;gradientColor=none;strokeColor=#ffffff;fillColor=#232F3E;dashed=0;verticalLabelPosition=middle;verticalAlign=bottom;align=center;html=1;whiteSpace=wrap;fontSize=10;fontStyle=1;spacing=3;shape=mxgraph.aws4.productIcon;prIcon=mxgraph.aws4.elastic_load_balancing;" parent="1" vertex="1">
          <mxGeometry x="320" y="445" width="60" height="85" as="geometry" />
        </mxCell>
        <mxCell id="6NimvU5wnSPPtsDhxzjk-22" value="Nginx-Ingress Controller&lt;span style=&quot;white-space: pre;&quot;&gt;&#x9;&lt;/span&gt;" style="text;html=1;strokeColor=none;fillColor=none;align=center;verticalAlign=middle;whiteSpace=wrap;rounded=0;fontColor=#2c39f2;" parent="1" vertex="1">
          <mxGeometry x="375" y="464.5" width="100" height="25.5" as="geometry" />
        </mxCell>
        <mxCell id="6NimvU5wnSPPtsDhxzjk-23" value="" style="sketch=0;points=[[0,0,0],[0.25,0,0],[0.5,0,0],[0.75,0,0],[1,0,0],[0,1,0],[0.25,1,0],[0.5,1,0],[0.75,1,0],[1,1,0],[0,0.25,0],[0,0.5,0],[0,0.75,0],[1,0.25,0],[1,0.5,0],[1,0.75,0]];outlineConnect=0;fontColor=#232F3E;gradientColor=#F78E04;gradientDirection=north;fillColor=#D05C17;strokeColor=#ffffff;dashed=0;verticalLabelPosition=bottom;verticalAlign=top;align=center;html=1;fontSize=12;fontStyle=0;aspect=fixed;shape=mxgraph.aws4.resourceIcon;resIcon=mxgraph.aws4.fargate;" parent="1" vertex="1">
          <mxGeometry x="200" y="590" width="60" height="60" as="geometry" />
        </mxCell>
        <mxCell id="6NimvU5wnSPPtsDhxzjk-25" value="" style="sketch=0;points=[[0,0,0],[0.25,0,0],[0.5,0,0],[0.75,0,0],[1,0,0],[0,1,0],[0.25,1,0],[0.5,1,0],[0.75,1,0],[1,1,0],[0,0.25,0],[0,0.5,0],[0,0.75,0],[1,0.25,0],[1,0.5,0],[1,0.75,0]];outlineConnect=0;fontColor=#232F3E;gradientColor=#F78E04;gradientDirection=north;fillColor=#D05C17;strokeColor=#ffffff;dashed=0;verticalLabelPosition=bottom;verticalAlign=top;align=center;html=1;fontSize=12;fontStyle=0;aspect=fixed;shape=mxgraph.aws4.resourceIcon;resIcon=mxgraph.aws4.fargate;" parent="1" vertex="1">
          <mxGeometry x="325" y="590" width="60" height="60" as="geometry" />
        </mxCell>
        <mxCell id="6NimvU5wnSPPtsDhxzjk-26" value="" style="sketch=0;points=[[0,0,0],[0.25,0,0],[0.5,0,0],[0.75,0,0],[1,0,0],[0,1,0],[0.25,1,0],[0.5,1,0],[0.75,1,0],[1,1,0],[0,0.25,0],[0,0.5,0],[0,0.75,0],[1,0.25,0],[1,0.5,0],[1,0.75,0]];outlineConnect=0;fontColor=#232F3E;gradientColor=#F78E04;gradientDirection=north;fillColor=#D05C17;strokeColor=#ffffff;dashed=0;verticalLabelPosition=bottom;verticalAlign=top;align=center;html=1;fontSize=12;fontStyle=0;aspect=fixed;shape=mxgraph.aws4.resourceIcon;resIcon=mxgraph.aws4.fargate;" parent="1" vertex="1">
          <mxGeometry x="443.75" y="590" width="60" height="60" as="geometry" />
        </mxCell>
        <mxCell id="6NimvU5wnSPPtsDhxzjk-32" value="&lt;b&gt;POD-1&lt;/b&gt;" style="text;html=1;strokeColor=none;fillColor=none;align=center;verticalAlign=middle;whiteSpace=wrap;rounded=0;" parent="1" vertex="1">
          <mxGeometry x="215" y="650" width="50" height="30" as="geometry" />
        </mxCell>
        <mxCell id="6NimvU5wnSPPtsDhxzjk-35" value="POD-2" style="text;html=1;strokeColor=none;fillColor=none;align=center;verticalAlign=middle;whiteSpace=wrap;rounded=0;" parent="1" vertex="1">
          <mxGeometry x="330" y="650" width="50" height="30" as="geometry" />
        </mxCell>
        <mxCell id="6NimvU5wnSPPtsDhxzjk-39" value="" style="sketch=0;points=[[0,0,0],[0.25,0,0],[0.5,0,0],[0.75,0,0],[1,0,0],[0,1,0],[0.25,1,0],[0.5,1,0],[0.75,1,0],[1,1,0],[0,0.25,0],[0,0.5,0],[0,0.75,0],[1,0.25,0],[1,0.5,0],[1,0.75,0]];outlineConnect=0;fontColor=#232F3E;gradientColor=#F78E04;gradientDirection=north;fillColor=#D05C17;strokeColor=#ffffff;dashed=0;verticalLabelPosition=bottom;verticalAlign=top;align=center;html=1;fontSize=12;fontStyle=0;aspect=fixed;shape=mxgraph.aws4.resourceIcon;resIcon=mxgraph.aws4.fargate;" parent="1" vertex="1">
          <mxGeometry x="315" y="715" width="60" height="60" as="geometry" />
        </mxCell>
        <mxCell id="6NimvU5wnSPPtsDhxzjk-40" value="" style="sketch=0;points=[[0,0,0],[0.25,0,0],[0.5,0,0],[0.75,0,0],[1,0,0],[0,1,0],[0.25,1,0],[0.5,1,0],[0.75,1,0],[1,1,0],[0,0.25,0],[0,0.5,0],[0,0.75,0],[1,0.25,0],[1,0.5,0],[1,0.75,0]];outlineConnect=0;fontColor=#232F3E;gradientColor=#F78E04;gradientDirection=north;fillColor=#D05C17;strokeColor=#ffffff;dashed=0;verticalLabelPosition=bottom;verticalAlign=top;align=center;html=1;fontSize=12;fontStyle=0;aspect=fixed;shape=mxgraph.aws4.resourceIcon;resIcon=mxgraph.aws4.fargate;" parent="1" vertex="1">
          <mxGeometry x="443.75" y="715" width="60" height="60" as="geometry" />
        </mxCell>
        <mxCell id="6NimvU5wnSPPtsDhxzjk-41" value="" style="endArrow=classic;html=1;rounded=0;exitX=1;exitY=0.5;exitDx=0;exitDy=0;exitPerimeter=0;" parent="1" source="pvarZySDFUWXHDMnCjcM-2" edge="1">
          <mxGeometry width="50" height="50" relative="1" as="geometry">
            <mxPoint x="490" y="700" as="sourcePoint" />
            <mxPoint x="310" y="742" as="targetPoint" />
          </mxGeometry>
        </mxCell>
        <mxCell id="6NimvU5wnSPPtsDhxzjk-52" value="" style="sketch=0;points=[[0,0,0],[0.25,0,0],[0.5,0,0],[0.75,0,0],[1,0,0],[0,1,0],[0.25,1,0],[0.5,1,0],[0.75,1,0],[1,1,0],[0,0.25,0],[0,0.5,0],[0,0.75,0],[1,0.25,0],[1,0.5,0],[1,0.75,0]];outlineConnect=0;fontColor=#232F3E;gradientColor=#FF4F8B;gradientDirection=north;fillColor=#BC1356;strokeColor=#ffffff;dashed=0;verticalLabelPosition=bottom;verticalAlign=top;align=center;html=1;fontSize=12;fontStyle=0;aspect=fixed;shape=mxgraph.aws4.resourceIcon;resIcon=mxgraph.aws4.mq;" parent="1" vertex="1">
          <mxGeometry x="180" y="1000" width="60" height="60" as="geometry" />
        </mxCell>
        <mxCell id="6NimvU5wnSPPtsDhxzjk-53" value="&lt;b&gt;RabbitMQ&lt;/b&gt;" style="text;html=1;strokeColor=none;fillColor=none;align=center;verticalAlign=middle;whiteSpace=wrap;rounded=0;" parent="1" vertex="1">
          <mxGeometry x="171" y="1060" width="80" height="30" as="geometry" />
        </mxCell>
        <mxCell id="6NimvU5wnSPPtsDhxzjk-54" value="" style="sketch=0;points=[[0,0,0],[0.25,0,0],[0.5,0,0],[0.75,0,0],[1,0,0],[0,1,0],[0.25,1,0],[0.5,1,0],[0.75,1,0],[1,1,0],[0,0.25,0],[0,0.5,0],[0,0.75,0],[1,0.25,0],[1,0.5,0],[1,0.75,0]];outlineConnect=0;fontColor=#232F3E;gradientColor=#4D72F3;gradientDirection=north;fillColor=#3334B9;strokeColor=#ffffff;dashed=0;verticalLabelPosition=bottom;verticalAlign=top;align=center;html=1;fontSize=12;fontStyle=0;aspect=fixed;shape=mxgraph.aws4.resourceIcon;resIcon=mxgraph.aws4.documentdb_with_mongodb_compatibility;" parent="1" vertex="1">
          <mxGeometry x="350" y="1000" width="60" height="60" as="geometry" />
        </mxCell>
        <mxCell id="6NimvU5wnSPPtsDhxzjk-55" value="&lt;b&gt;MongoDB&lt;/b&gt;" style="text;html=1;strokeColor=none;fillColor=none;align=center;verticalAlign=middle;whiteSpace=wrap;rounded=0;" parent="1" vertex="1">
          <mxGeometry x="345" y="1060" width="70" height="30" as="geometry" />
        </mxCell>
        <mxCell id="6NimvU5wnSPPtsDhxzjk-60" value="" style="endArrow=none;html=1;rounded=0;" parent="1" edge="1">
          <mxGeometry width="50" height="50" relative="1" as="geometry">
            <mxPoint x="120" y="1200" as="sourcePoint" />
            <mxPoint x="120" y="440" as="targetPoint" />
          </mxGeometry>
        </mxCell>
        <mxCell id="6NimvU5wnSPPtsDhxzjk-61" value="" style="endArrow=none;html=1;rounded=0;" parent="1" edge="1">
          <mxGeometry width="50" height="50" relative="1" as="geometry">
            <mxPoint x="120" y="439.5" as="sourcePoint" />
            <mxPoint x="600" y="439.5" as="targetPoint" />
          </mxGeometry>
        </mxCell>
        <mxCell id="6NimvU5wnSPPtsDhxzjk-62" value="" style="endArrow=none;html=1;rounded=0;" parent="1" edge="1">
          <mxGeometry width="50" height="50" relative="1" as="geometry">
            <mxPoint x="600" y="440" as="sourcePoint" />
            <mxPoint x="600" y="1200" as="targetPoint" />
          </mxGeometry>
        </mxCell>
        <mxCell id="6NimvU5wnSPPtsDhxzjk-66" value="" style="endArrow=none;html=1;rounded=0;" parent="1" edge="1">
          <mxGeometry width="50" height="50" relative="1" as="geometry">
            <mxPoint x="120" y="570" as="sourcePoint" />
            <mxPoint x="600" y="570" as="targetPoint" />
          </mxGeometry>
        </mxCell>
        <mxCell id="6NimvU5wnSPPtsDhxzjk-72" value="" style="endArrow=classic;html=1;rounded=0;entryX=0;entryY=1;entryDx=0;entryDy=0;" parent="1" source="6NimvU5wnSPPtsDhxzjk-26" target="pS0oYRGd_Al584LccNZm-19" edge="1">
          <mxGeometry width="50" height="50" relative="1" as="geometry">
            <mxPoint x="530" y="660" as="sourcePoint" />
            <mxPoint x="626.5" y="489.01331557922776" as="targetPoint" />
          </mxGeometry>
        </mxCell>
        <mxCell id="6NimvU5wnSPPtsDhxzjk-79" value="" style="endArrow=classic;html=1;rounded=0;" parent="1" edge="1">
          <mxGeometry width="50" height="50" relative="1" as="geometry">
            <mxPoint x="209" y="933" as="sourcePoint" />
            <mxPoint x="209" y="993" as="targetPoint" />
          </mxGeometry>
        </mxCell>
        <mxCell id="6NimvU5wnSPPtsDhxzjk-80" value="" style="endArrow=classic;html=1;rounded=0;" parent="1" edge="1">
          <mxGeometry width="50" height="50" relative="1" as="geometry">
            <mxPoint x="376" y="933" as="sourcePoint" />
            <mxPoint x="376" y="996" as="targetPoint" />
          </mxGeometry>
        </mxCell>
        <mxCell id="6NimvU5wnSPPtsDhxzjk-81" value="" style="endArrow=classic;html=1;rounded=0;" parent="1" edge="1">
          <mxGeometry width="50" height="50" relative="1" as="geometry">
            <mxPoint x="525" y="967" as="sourcePoint" />
            <mxPoint x="525" y="997" as="targetPoint" />
            <Array as="points">
              <mxPoint x="525" y="931" />
              <mxPoint x="525" y="957" />
            </Array>
          </mxGeometry>
        </mxCell>
        <mxCell id="6NimvU5wnSPPtsDhxzjk-83" value="&lt;font color=&quot;#2e82ff&quot;&gt;These services are hosted on premise using High Available . Fault tolerant deployment- If they are already available(in customer environment), we can use those in xlrt application.&amp;nbsp;&lt;/font&gt;" style="text;html=1;strokeColor=none;fillColor=none;align=center;verticalAlign=middle;whiteSpace=wrap;rounded=0;" parent="1" vertex="1">
          <mxGeometry x="135" y="1100" width="460" height="50" as="geometry" />
        </mxCell>
        <mxCell id="6NimvU5wnSPPtsDhxzjk-87" value="" style="endArrow=classic;html=1;rounded=0;exitX=0.5;exitY=0;exitDx=0;exitDy=0;" parent="1" edge="1">
          <mxGeometry width="50" height="50" relative="1" as="geometry">
            <mxPoint x="360" y="650" as="sourcePoint" />
            <mxPoint x="360" y="710" as="targetPoint" />
            <Array as="points" />
          </mxGeometry>
        </mxCell>
        <mxCell id="6NimvU5wnSPPtsDhxzjk-88" value="&lt;font style=&quot;font-size: 14px;&quot; face=&quot;Verdana&quot;&gt;&lt;b&gt;On Premise - Red Hat OpenShift Platform Plus&lt;/b&gt;&lt;/font&gt;" style="text;html=1;strokeColor=none;fillColor=none;align=center;verticalAlign=middle;whiteSpace=wrap;rounded=0;fontColor=#FF2E3C;" parent="1" vertex="1">
          <mxGeometry x="80" y="390" width="210" height="30" as="geometry" />
        </mxCell>
        <mxCell id="6NimvU5wnSPPtsDhxzjk-103" value="&lt;b&gt;Neo4j GraphDatabase&lt;/b&gt;" style="text;html=1;strokeColor=none;fillColor=none;align=center;verticalAlign=middle;whiteSpace=wrap;rounded=0;" parent="1" vertex="1">
          <mxGeometry x="433.75" y="780" width="91.25" height="20" as="geometry" />
        </mxCell>
        <mxCell id="qi-xgSBIzrGGU9BenloK-2" value="" style="endArrow=classic;html=1;rounded=0;" parent="1" edge="1">
          <mxGeometry width="50" height="50" relative="1" as="geometry">
            <mxPoint x="184.5" y="420" as="sourcePoint" />
            <mxPoint x="184.5" y="440" as="targetPoint" />
          </mxGeometry>
        </mxCell>
        <mxCell id="qi-xgSBIzrGGU9BenloK-5" value="&lt;b&gt;ML Model&lt;/b&gt;" style="text;html=1;strokeColor=none;fillColor=none;align=center;verticalAlign=middle;whiteSpace=wrap;rounded=0;" parent="1" vertex="1">
          <mxGeometry x="330" y="785" width="60" height="10" as="geometry" />
        </mxCell>
        <mxCell id="qi-xgSBIzrGGU9BenloK-13" value="" style="outlineConnect=0;dashed=0;verticalLabelPosition=bottom;verticalAlign=top;align=center;html=1;shape=mxgraph.aws3.vault;fillColor=#E05243;gradientColor=none;" parent="1" vertex="1">
          <mxGeometry x="500" y="1000" width="54" height="60" as="geometry" />
        </mxCell>
        <mxCell id="qi-xgSBIzrGGU9BenloK-14" value="&lt;b&gt;Vault&lt;/b&gt;" style="text;html=1;align=center;verticalAlign=middle;resizable=0;points=[];autosize=1;strokeColor=none;fillColor=none;" parent="1" vertex="1">
          <mxGeometry x="502" y="1060" width="50" height="30" as="geometry" />
        </mxCell>
        <mxCell id="qi-xgSBIzrGGU9BenloK-36" value="&lt;font face=&quot;Verdana&quot;&gt;&lt;b&gt;Service Mesh&lt;/b&gt;&lt;/font&gt;" style="text;html=1;strokeColor=none;fillColor=none;align=center;verticalAlign=middle;whiteSpace=wrap;rounded=0;" parent="1" vertex="1">
          <mxGeometry x="15" y="879" width="80" height="30" as="geometry" />
        </mxCell>
        <mxCell id="qi-xgSBIzrGGU9BenloK-41" value="" style="endArrow=classic;html=1;rounded=0;" parent="1" target="pS0oYRGd_Al584LccNZm-17" edge="1">
          <mxGeometry width="50" height="50" relative="1" as="geometry">
            <mxPoint x="570" y="740" as="sourcePoint" />
            <mxPoint x="630" y="630" as="targetPoint" />
            <Array as="points">
              <mxPoint x="640" y="740" />
            </Array>
          </mxGeometry>
        </mxCell>
        <mxCell id="pvarZySDFUWXHDMnCjcM-2" value="" style="sketch=0;points=[[0,0,0],[0.25,0,0],[0.5,0,0],[0.75,0,0],[1,0,0],[0,1,0],[0.25,1,0],[0.5,1,0],[0.75,1,0],[1,1,0],[0,0.25,0],[0,0.5,0],[0,0.75,0],[1,0.25,0],[1,0.5,0],[1,0.75,0]];outlineConnect=0;fontColor=#232F3E;gradientColor=#F78E04;gradientDirection=north;fillColor=#D05C17;strokeColor=#ffffff;dashed=0;verticalLabelPosition=bottom;verticalAlign=top;align=center;html=1;fontSize=12;fontStyle=0;aspect=fixed;shape=mxgraph.aws4.resourceIcon;resIcon=mxgraph.aws4.fargate;" parent="1" vertex="1">
          <mxGeometry x="200" y="715" width="55" height="55" as="geometry" />
        </mxCell>
        <mxCell id="pvarZySDFUWXHDMnCjcM-3" value="&lt;b&gt;ML Model&lt;span style=&quot;white-space: pre;&quot;&gt;&#x9;&lt;/span&gt;&lt;/b&gt;" style="text;html=1;strokeColor=none;fillColor=none;align=center;verticalAlign=middle;whiteSpace=wrap;rounded=0;" parent="1" vertex="1">
          <mxGeometry x="185" y="780" width="90" height="15" as="geometry" />
        </mxCell>
        <mxCell id="pvarZySDFUWXHDMnCjcM-7" value="" style="endArrow=classic;html=1;rounded=0;" parent="1" edge="1">
          <mxGeometry width="50" height="50" relative="1" as="geometry">
            <mxPoint x="230" y="650" as="sourcePoint" />
            <mxPoint x="230" y="710" as="targetPoint" />
          </mxGeometry>
        </mxCell>
        <mxCell id="EhBnIgL5lR52CFg3xYGH-1" value="" style="strokeWidth=2;html=1;shape=mxgraph.flowchart.annotation_2;align=left;labelPosition=right;pointerEvents=1;direction=south;" parent="1" vertex="1">
          <mxGeometry x="206.25" y="510" width="297.5" height="50" as="geometry" />
        </mxCell>
        <mxCell id="209a7pPDX7ZdDf6fc1KD-4" value="" style="shape=link;html=1;rounded=0;width=4;" parent="1" source="6NimvU5wnSPPtsDhxzjk-20" edge="1">
          <mxGeometry width="100" relative="1" as="geometry">
            <mxPoint x="300" y="460" as="sourcePoint" />
            <mxPoint x="350" y="530" as="targetPoint" />
          </mxGeometry>
        </mxCell>
        <mxCell id="6NimvU5wnSPPtsDhxzjk-34" value="&lt;b&gt;POD-N&lt;/b&gt;" style="text;html=1;strokeColor=none;fillColor=none;align=center;verticalAlign=middle;whiteSpace=wrap;rounded=0;" parent="1" vertex="1">
          <mxGeometry x="449.99999999999994" y="650" width="50" height="30" as="geometry" />
        </mxCell>
        <mxCell id="209a7pPDX7ZdDf6fc1KD-8" value="" style="endArrow=classic;html=1;rounded=0;exitX=0.5;exitY=1;exitDx=0;exitDy=0;exitPerimeter=0;" parent="1" source="6NimvU5wnSPPtsDhxzjk-26" edge="1">
          <mxGeometry width="50" height="50" relative="1" as="geometry">
            <mxPoint x="330" y="640" as="sourcePoint" />
            <mxPoint x="474" y="710" as="targetPoint" />
          </mxGeometry>
        </mxCell>
        <mxCell id="pS0oYRGd_Al584LccNZm-2" value="" style="image;html=1;image=img/lib/clip_art/networking/Firewall-page1_128x128.png" parent="1" vertex="1">
          <mxGeometry x="500" y="230" width="60" height="70" as="geometry" />
        </mxCell>
        <mxCell id="pS0oYRGd_Al584LccNZm-3" value="" style="outlineConnect=0;dashed=0;verticalLabelPosition=bottom;verticalAlign=top;align=center;html=1;shape=mxgraph.aws3.classic_load_balancer;fillColor=#F58534;gradientColor=none;" parent="1" vertex="1">
          <mxGeometry x="311" y="230" width="69" height="72" as="geometry" />
        </mxCell>
        <mxCell id="pS0oYRGd_Al584LccNZm-5" value="&lt;b&gt;&lt;font face=&quot;Verdana&quot;&gt;Infra Nodes&lt;span style=&quot;white-space: pre;&quot;&gt;&#x9;&lt;/span&gt;&lt;/font&gt;&lt;/b&gt;" style="text;html=1;strokeColor=none;fillColor=none;align=center;verticalAlign=middle;whiteSpace=wrap;rounded=0;" parent="1" vertex="1">
          <mxGeometry x="495.4" y="440" width="104.6" height="40" as="geometry" />
        </mxCell>
        <mxCell id="pS0oYRGd_Al584LccNZm-6" value="&lt;b&gt;&lt;font face=&quot;Verdana&quot;&gt;Master Nodes/Control Plane Nodes&lt;/font&gt;&lt;/b&gt;" style="text;html=1;strokeColor=none;fillColor=none;align=center;verticalAlign=middle;whiteSpace=wrap;rounded=0;" parent="1" vertex="1">
          <mxGeometry x="120" y="440" width="140" height="40" as="geometry" />
        </mxCell>
        <mxCell id="pS0oYRGd_Al584LccNZm-13" value="&lt;b&gt;Worker Nodes&lt;/b&gt;" style="text;html=1;strokeColor=none;fillColor=none;align=center;verticalAlign=middle;whiteSpace=wrap;rounded=0;" parent="1" vertex="1">
          <mxGeometry x="120" y="570" width="60" height="30" as="geometry" />
        </mxCell>
        <mxCell id="pS0oYRGd_Al584LccNZm-14" value="&lt;b&gt;&lt;font face=&quot;Verdana&quot; style=&quot;font-size: 11px;&quot;&gt;OpenShift Service Mesh&lt;/font&gt;&lt;/b&gt;" style="text;html=1;strokeColor=none;fillColor=none;align=center;verticalAlign=middle;whiteSpace=wrap;rounded=0;" parent="1" vertex="1">
          <mxGeometry x="148.5" y="869" width="87.5" height="40" as="geometry" />
        </mxCell>
        <mxCell id="pS0oYRGd_Al584LccNZm-15" value="&lt;b&gt;&lt;font face=&quot;Verdana&quot; style=&quot;font-size: 11px;&quot;&gt;Red Hat Advance Cluster Security for Kubernetes&lt;/font&gt;&lt;/b&gt;" style="text;html=1;strokeColor=none;fillColor=none;align=center;verticalAlign=middle;whiteSpace=wrap;rounded=0;" parent="1" vertex="1">
          <mxGeometry x="275" y="890" width="160" height="30" as="geometry" />
        </mxCell>
        <mxCell id="pS0oYRGd_Al584LccNZm-17" value="&lt;b&gt;&lt;font face=&quot;Verdana&quot;&gt;OpenShift Data Foundation&lt;span style=&quot;white-space: pre;&quot;&gt;&#x9;&lt;/span&gt;&lt;/font&gt;&lt;/b&gt;" style="text;html=1;strokeColor=none;fillColor=none;align=center;verticalAlign=middle;whiteSpace=wrap;rounded=0;" parent="1" vertex="1">
          <mxGeometry x="640" y="710" width="110" height="60" as="geometry" />
        </mxCell>
        <mxCell id="pS0oYRGd_Al584LccNZm-18" value="" style="endArrow=classic;startArrow=classic;html=1;rounded=0;" parent="1" edge="1">
          <mxGeometry width="50" height="50" relative="1" as="geometry">
            <mxPoint x="380" y="270" as="sourcePoint" />
            <mxPoint x="500" y="270" as="targetPoint" />
          </mxGeometry>
        </mxCell>
        <mxCell id="pS0oYRGd_Al584LccNZm-19" value="&lt;b&gt;&lt;font face=&quot;Verdana&quot;&gt;Container Registry(AWS ECR Private Repo)&amp;nbsp;&lt;span style=&quot;white-space: pre;&quot;&gt;&#x9;&lt;/span&gt;&lt;/font&gt;&lt;/b&gt;" style="text;html=1;strokeColor=none;fillColor=none;align=center;verticalAlign=middle;whiteSpace=wrap;rounded=0;" parent="1" vertex="1">
          <mxGeometry x="630" y="410" width="60" height="30" as="geometry" />
        </mxCell>
        <mxCell id="qIqdB7RpV6HF05chpdyA-9" value="WAF" style="text;html=1;strokeColor=none;fillColor=none;align=center;verticalAlign=middle;whiteSpace=wrap;rounded=0;" parent="1" vertex="1">
          <mxGeometry x="490" y="300" width="60" height="30" as="geometry" />
        </mxCell>
        <mxCell id="qIqdB7RpV6HF05chpdyA-11" value="" style="endArrow=classic;html=1;rounded=0;exitX=1;exitY=0.5;exitDx=0;exitDy=0;exitPerimeter=0;" parent="1" source="6NimvU5wnSPPtsDhxzjk-1" edge="1">
          <mxGeometry width="50" height="50" relative="1" as="geometry">
            <mxPoint x="105" y="280" as="sourcePoint" />
            <mxPoint x="300" y="266" as="targetPoint" />
          </mxGeometry>
        </mxCell>
        <mxCell id="qIqdB7RpV6HF05chpdyA-13" value="" style="endArrow=none;html=1;rounded=0;" parent="1" edge="1">
          <mxGeometry width="50" height="50" relative="1" as="geometry">
            <mxPoint x="120" y="1200" as="sourcePoint" />
            <mxPoint x="600" y="1200" as="targetPoint" />
          </mxGeometry>
        </mxCell>
        <mxCell id="qIqdB7RpV6HF05chpdyA-14" value="" style="sketch=0;points=[[0,0,0],[0.25,0,0],[0.5,0,0],[0.75,0,0],[1,0,0],[0,1,0],[0.25,1,0],[0.5,1,0],[0.75,1,0],[1,1,0],[0,0.25,0],[0,0.5,0],[0,0.75,0],[1,0.25,0],[1,0.5,0],[1,0.75,0]];outlineConnect=0;fontColor=#232F3E;gradientColor=#F78E04;gradientDirection=north;fillColor=#D05C17;strokeColor=#ffffff;dashed=0;verticalLabelPosition=bottom;verticalAlign=top;align=center;html=1;fontSize=12;fontStyle=0;aspect=fixed;shape=mxgraph.aws4.resourceIcon;resIcon=mxgraph.aws4.fargate;" parent="1" vertex="1">
          <mxGeometry x="525" y="590" width="60" height="60" as="geometry" />
        </mxCell>
        <mxCell id="qIqdB7RpV6HF05chpdyA-15" value="&lt;b&gt;AuthN/AuthZ Service&lt;/b&gt;" style="text;html=1;strokeColor=none;fillColor=none;align=center;verticalAlign=middle;whiteSpace=wrap;rounded=0;" parent="1" vertex="1">
          <mxGeometry x="640" y="605" width="102.5" height="30" as="geometry" />
        </mxCell>
        <mxCell id="qIqdB7RpV6HF05chpdyA-16" value="" style="endArrow=classic;html=1;rounded=0;" parent="1" edge="1">
          <mxGeometry width="50" height="50" relative="1" as="geometry">
            <mxPoint x="580" y="620" as="sourcePoint" />
            <mxPoint x="650" y="620" as="targetPoint" />
          </mxGeometry>
        </mxCell>
        <mxCell id="qIqdB7RpV6HF05chpdyA-17" value="" style="endArrow=none;dashed=1;html=1;rounded=0;" parent="1" edge="1">
          <mxGeometry width="50" height="50" relative="1" as="geometry">
            <mxPoint x="120" y="933" as="sourcePoint" />
            <mxPoint x="600" y="933" as="targetPoint" />
          </mxGeometry>
        </mxCell>
        <mxCell id="qIqdB7RpV6HF05chpdyA-18" value="&lt;div&gt;&lt;font face=&quot;Verdana&quot;&gt;&lt;b&gt;Jenkins&lt;/b&gt;&lt;/font&gt;&lt;/div&gt;" style="text;html=1;strokeColor=none;fillColor=none;align=center;verticalAlign=middle;whiteSpace=wrap;rounded=0;" parent="1" vertex="1">
          <mxGeometry x="610" y="530" width="140" height="30" as="geometry" />
        </mxCell>
        <mxCell id="-FWxgoRZEaUpRLydqsQy-1" value="" style="shape=image;verticalLabelPosition=bottom;labelBackgroundColor=default;verticalAlign=top;aspect=fixed;imageAspect=0;image=data:image/jpeg,/9j/4AAQSkZJRgABAQAAAQABAAD//gA7Q1JFQVRPUjogZ2QtanBlZyB2MS4wICh1c2luZyBJSkcgSlBFRyB2NjIpLCBxdWFsaXR5ID0gODAK/9sAhAAGBAUGBQQGBgUGBwcGCAoQCgoJCQoUDg8MEBcUGBgXFBYWGh0lHxobIxwWFiAsICMmJykqKRkfLTAtKDAlKCkoAQcHBwoIChMKChMoGhYaKCgoKCgoKCgoKCgoKCgoKCgoKCgoKCgoKCgoKCgoKCgoKCgoKCgoKCgoKCgoKCgoKCj/wgARCAKKA2IDASIAAhEBAxEB/8QAHQABAAEFAQEBAAAAAAAAAAAAAAcBBAUGCAMCCf/aAAgBAQAAAADqkAAAAAAAAAAAAAAAAAAAAAAAAApWlQAKVBSoClQAAAAAAAAAAAAAAAAAAAAAAAAAAAAAAAFvgMdTIZ+6AAClQAAAAAAAAAAAACkew1GWn+Y+tskuZpJqAAAAAAAAAAAAAAAp4wZz9qC5l6S9h+8RqUfxxab/ANYb2FKgpUAAAAAAAAAAAAKRJy/eSVBEqdFZ8+fmiziSBsH1rNgAAAAAAAAAAAAAA1Tk7H9AYaFeipEeHl50B589Ql1bPYAAAAAAAAAAAAACJ+Qp936E9d6yyvhbUACAYH7AmgApUAAAAAAAAAAABo/DvUvvFOG6xu7TxAA++W4z7q3UAAAAAAAAAAAAAOKtnzMP2nXmx2ni+/Xy+AHtiI55r3nuQAAAAAAAAAAAAAQRyj9SNvkOdu0tXvpnPlh0rtIFlxr54J3Xv4AAAAAAAAAAAACGOPd26UwupQ717mqfcecsS/su67cBbenrHvL84dSAAAAAAAAAAAAAOCvDqKIrJHPXmcfXE/U+3gAI9gLvAKqFQAAAAAAAAAADDfnf0vrlgRv2v9sLFE4gADif9A/cAAAAAAAAAAAAGgcK9L6aU1rrgB9aBvopUrGcl8mdc7YAAAAAAAAAAAAFnxzFHQuvltf9GAel7CEiZo596Bqv+fZX596HkkAAAAAAAAAAAAWfFcc/E94P6+7LbpyA9bzF8wdN+6Ds/KVbrTIS9Nf7VvilaVAAAAAAAAAAAefGMXyXFucwf1sm7ZfoQDWdJ2CBpNmhh+QuxLHkvD71tUHyn2j6gAAAAAAAAAAAcu89ShiNEnmbLLlL72DqkDU+ZNf2TqDYyB9L6r0O43Tn2NtWn/qgAAAAAAAAAAAEV8V7/tsUybNnMO/SNyrddu+gAD45K3mfznXV7LR+z5aAAAAAAAAAAAFhwNWSvGI+tdi5jzW3x9tU+/YABjOPpvmVzFZX+g077yIAAAAAAAAAABzHzvLlxZxj1bIHOvQMMTWAAe/ga3xl1/uXIub9LeMOguoa0VAAAAAAAAAAGF/PzbN0saaHK/QUWSgAAPDKWRa8R9q5HiXfzVNX/QLPAAAAAAAAAAAc0c6TB8W7Baj2rkKgADnvoRjodiacZb13kSQjzi3obp0AAAAAAAAAAHn+fGT3qxpWka7N1PmIlycjgAc9aDceMnzJY6Baw5to07HfoT61AAAAAAAAAAEYcSy1dW4s48t8r7dmXYD38430/cMzS/yGgxnGfXnOFxlBYxh2rKoAAAAAAAAAAcrQfLlj8h565qk0dLWHyBfRtscaQbrhPkB7F07leNpRqEZTZ1bUAAAAAAAAAAcFeO9WilaVNGzHZtn4tI2+4PXDwB0Jfa9rOP2+32375m0rdKBpfv30AAAAAAAAAALL85pDzniAwmg925K0YWDuiw0zlWRNryP14ype6ZyHJlwDAaH+jF/UAAAAAAAAABovCEs+tFK0VUjie53sKIOykuhpsJa3XOSTLvhxv6bjSpSuPjLuvfgAAAAAAAAACIuM5ktwBgMD3H5+CnNUlSYAHNcN5aQ/QHnE/Y8xAAAAAAAAAAEF8mzJaAGM0bH9ITvYUefMG6zZ9AYbnCM9r1TISBcgibq6eAAAAAAAAAACAuWZe8ALXTdeyd1ieopatKPjnrR50kj0NTiCHbXYt4xsd+8hZAIp6h6BAAAAAAAAAAIE5Wl3xD51bUr3dM3SPcDuO7bFfQTr/wB/F/tFddx17jb70uJCxkeJEyQinqSflQAAAAAAAAAIU5Cl75KY7RLPctqqtsRpsuTvawNqG14TWMNu8sbdg+ctuy+G0Xcs4je6kelaRJ1xOAAAAAAAAAABF/E0qXDw07XMnv8AfUssZamN8ZN0fN6J55DNa3jNgwEtePP1N42G4yeHwsilvFXa0qAAAAAAAAAAGsfn7IuXaDgdr3Rj8Z4gpjMJuMOG/wC6aZmdZ2r2h/43PZblr+Y24xUcd/bVUAAAAAAAAAB8/nTse0tAtZN8dd+ABh89DBd7f8+K70+ybrtP21OQsjSur6x+jH2AAAAAAAAAAOKdJ39rWkShf6vQAWnrEg2XbZNkCD9BvfL52p56xKI0HcO2lQAAAAAAAAADnrmCVfvwivat1122ADB6B43G0ZbM9h4PJc8736wniMljfvdqPmKum+iQAAAAAAAAAA1n8/d9z6P8bK2HxgAa/YeN5JMrwbKksbBzPv33FGq++ubjmTBR/wDoBtIAAAAAAAAAAOIdNkNgtAk77wgLfwvzw1vxmSRmM5/7t1qCZBxcC5X51SUfoj3be4qFQAAAAAAAAACIeNJLyXzFu17LrgLG7yVgePj0MIbkXPx5IcIWX1jG9GOjPsaYwAAAAAAAAAAPng3CSE0uzkTVqBa317jjHa/JUpXzEwl3Xyfl4nyDVt1zRH2W71+wAAAAAAAAAAEWcU7/AJ3B6NLWt+AeN/cY4Y/CfEiyXl4HnqItRyC31mU8bgcXiJw63+qVAAAAAAAAAAA46iSTKRXK+MsQ8764xoMfhbTbsnqP1mvamu/NcblZ/uOb+oJ9AAAAAAAAAAAMRwZ4yFFe/wD3jBrV/mr3FeHl5efn8fNnbnr9fHx8+kuTZKtzSCOdP0BqVAAAAAAAAAABHnEOexmzZbDFngbP1o2PZM9mMhcUssNo2k5i3tekoTm/oqFdXmzZ7D87O3JGAAAAAAAAAAAEN8e02vZsE+/S5+fbqzbPZUKU0ziSSMNHH6OQxo8/6Ds+V2v74ckDqMAAAAAAAAAAAIT5Gz+5YAevve9tKKqVUpp/GO0YrQ+88jyf2do+NzO1XvKehd0qgAAAAAAAAAADluFN914Hh30APjUOOPZpXYcycMds6LoWUkbZoAgvvkAAAAAAAAAAAHPHOMha+DXv0LuaKqVU+dQ5A+Wm9KdD8Pdi3P39fdpCEd9pKgAAAAAAAAAACBOYJFwIMF29uQB86fyRatSljpbjPpKzx1d6zfJE2T8AAAAAAAAAAACD+StouahieqJhoqFGn8p4lq15mbzIRrLkgesSa73nfAAAAAAAAAAAA1nhvAe+cyVSxmzpWiqlVGoc0x1b43YO975DMaYq73Obc3QqAAAAAAAAAAALeIudtEuMvkvXx23swAajz3on3g+2tsAAAAAAAAAAAAAApE3OceLi4yH6EgDVYDkvBwN3gAAAAAAAAAAAAUrStK0AabFWn46Hv0J2AA1qCN8z3E/6LegAFQAAAAAAAAAAAAU/PbqKaADXoL2ffOKOzt7AAAAAAAAAAAAUqUrRWgByXXrMAwkH38l8hz9N4AFQAAAAAAAAAAAAIh5Y/QSoDFwtFV1FXYMuAAAAAAAAAAAAAAALH87u690AWcS8eTJLc01AAAAAAAAAAAAAAAOM9i6cvg+cbiMHw7+kFyAAAAAAAAAAAAAAAEPcb+u57jsWS8sRhta0v3/QW+AAAAAAAAAAAAFAAAPiNI50/AY3x+rvKZrbZw2MAAVAAAAAAAAAAAAAAAAAAAAAAAAAAAAAAAAAAAAAAAAAAAAAAKVKVorQAFli8ftNwPHAbKAAFQAAAAAAAAADVobMtO4ACMuRtc733IcfQv2pKoAAAAAAAAAAAACKeLNj74vgUVUqpXkOEe+NyEBQf19t4AAAAAAAAAAAADT+Bd072MJp+c27zwmPyTR94zrkWEO+MrjWdxthnbzC4/YsHrUiX7w0X42TI34AAAAAAAAAANP4G3PvZzjCPWfG8ndXcmQ9JOxxT5995zkSEe97TjLoGTeVI969kHjzRJg9Yf3DvLF8MSdLnLvWMiAAAAAAAAAAFKtP4F3TvXSODp36c42jTvTXeLeieoOZOce0ZY5FhDu/n/p3OueeXOvpr5r5q7GmPiiLf0O0DjCVeksi3FUAAAAAAAAACygKVPbgbc+9oG5PkqXyX9I4u6U6V5t5o7OlvkSEd30jrSdXPHLvXs2c1c19oyxxhEv6F3HC2qtr7R20AAAAAAAAAAhDkWZOjOD5K7fiji2WO0Vp4xxxd0p0rzbzR2dLfIkI9qce/Hemzc8cu9ezZzVzX2jLHGES/oXHslRxBEVdFdPgAAAAAAAAAGicN9uQrBXaEpefE0adJbrEfS0P8uTb1hyzBHTc8cdRj2RjeSZI6357gTojo7leEeo544njztTRtG631Hhbs2WwAAAAAAAAABosUXcu7SeUSabm5l9YwV3nRa02jV6+sqRR8XNtWm06vSu8aPS6z9pHXzJ27gAAAAAAAAACgAAAAAAAKgAAAAAAAAAAAAAAAAAAAAAAAAAAAAAAAAAAAAAAAAAAAAAAAFFaVUrSopUpVSpSqlSlaVAAAAAf/8QAGgEBAAIDAQAAAAAAAAAAAAAAAAMEAQIFBv/aAAgBAhAAAAAAAAAAAAAAAAAAAAAAAAAAANY8byAAAAAAAAYr19cY2t2AAAAAAABinBoC7aAAAAAAAK9PWfWE2u2AAAAAAAGa1CzmGMzixfAAAAAABlRqyRttRt09gAAAAAAy5sJJLXljzNakAAAAAAOZ0Yp6Fcsz09LcUm9kAAAAABztLEuIawZxLLVl26AAAAAAIuFdl110BnOtyrtS7coAAAAAcmpv1qO8YJ9s66RVbvUAAAAAGPPlnpRVMEm8zWSPma57+QAAAACryBP0abaPNnTOmk/MOxZAAAAAOfzg69aOxDrmfMNulUOlfAAAAAObQM3unUqa2o4UtvowcWq6HRAAAAAOdz1nrdKWjVjilkhkrWOxS4NfodEAAAAAo8zp9e3roig5litYiza6OPN1eneAAAAAIOL2+3CGvItQ7NnRr+Z17U4AAAAA4Nv0O2A52LMWLUmOZxN+7kAAAAAc6l6W1q1bR4t1qdxnz1LodEAAAAANeH1+1GxtjFeafm2JYPNz9TYAAAAAFSL0WiKbXXEUbfevrsAAAAAARdRiKvgM26YAAAAAAF3ZmhgM3+eAAAAAABc3KegL9HGDIAAAAADeeVViDFyrgAAAAAABvLHGGGQAAAAAAAAwyAAAAAAAAGGQAAAAAAAAxkAAAAAAAAAAAAAAAAAAAAAAAAAAAAAAAAAAAAAAAAAAAAAAAAAAAAAAAAAAAAAAAAAAAAAAAAAAAAAAAAAAAAAA/8QAGwEBAAIDAQEAAAAAAAAAAAAAAAECAwQGBQf/2gAIAQMQAAAAAAAAAAAAAAAAAAAAAAAAAAJWurWIAAAAAAAFpy5bSjBggAAAAAACZbGawNbXgAAAAAAFmXZthtkI1cVQAAAAAAsjPtYYy2DDqQAAAAAALQ2s9bIkRo0AAAAAALIbuQpjz47xjwYgAAAAAFu14vJi28phxbNte9cujUAAAAAE9js8dScmYCmPP62TlIAAAAAD0PqHMclebAhOvn9/p/m+gAAAAAJ773Nb5xnpcGOsWnsfa57iIAAAAAMv1jG8njtXaFK41qZPpGWny7EAAAAAe739DzOB2UWjDZa3pdscB4oAAAAB13Vh89174csxiZdbtPdOP5YAAAAA7PpivM8hm2ZwXyKa/m7nf+y5bjwAAAADseoeRxHha/p7V/d0/My16PzOS9L6R6vK8gAAAAAdN2fGchoWvOba6/yPa8ner4Xi2+m+3xvMAAAAAHq/RPnfI5wv1fh+hSMVvE3PreT555IAAAABb6f4Pzykh7jRyTo4b9N9DwfMKAAAAAE9d0fyjz7rK5Xn7vo+ej6N0fLchAAAAAA2PpXC8hlTWZ29XU9rUxbX1XzuK1wAAAAAe9v/AD27Nhm1s+VjpuWxEAAAAABO/wA6nY2gRo781mJgAAAAAE+dVHpSDzPURMWqAAAAABo4zfuE+Z6chUAAAAACurhbuULaG7KUQAAAAAAmmHJkCyIAAAAAAAEwFkQAAAAAAAJQLIgAAAAAAAJgWiAAAAAAAATIRAAAAAAAAAAAAAAAAACUJgAAAAAAJQBKEwAAAAAAEiYmAi1bRNbRAAAAABIQtWUqzFq2rM1AAAAAJQkAAEAAAAAAAAAAAAAAAAAAAAAf/8QAQhAAAQQBAgMEBwYDBwQCAwAAAwECBAUGABEHEhMQFCExFSAiMDJBYBcjJDM2UzRCURYlNUNFUlVAUFSAJkRhYnH/2gAIAQEAAQwB/wDXwphhbuYjGIW/qA/mWkJFdllE3zs4+kyyiX/UwaFkNOX4LSFuGQE6bgMMifUflq3zCmrN2klIctnxLlk3bXRBBbOyi7m79axOiEe8juYjnOd6jXOY7mYqtWFktzC27vYyNq3iVPFs2wjBkNps0prNUZ1+7G+njFGETiGe0Y7/AIixIyuFUi70S4yO0t1Xvkt6j7I4CyCtEAbyEqsAnSER88rIrYmB04UTrIeQrMVpGJ4V4tOxeld51wdHwmjL8Md4tS+HUZ2/c5xWan4Nbxd1EwclsmMaKTpyQkE/WP5XZ0jmtCXrRsZyeBfi+4d05P03kedV1XzCi/jJV9kNjeF3mmXp1WLWljs5gOiIWF1kAHVt566lNEksrIjnEDj2Dy53KaxVYkepqYVSHpwQNH6m6f11zp/XXOmuompQI0wXTlCGZlxgUKRu+sKsYlxST6gnLNArWxzljmYYD3DLhOaMteSFZK0c/wCmL+/g0UfqTS+3kuZWN0rhNd3WHQ4vOt9ibdCLVY9V0o+rytcW8zCNBarYzesVG22W2ngnUdjeKQqZGkciSJml8PPSkT5aV668fXKxphOGVrXjyvDljo+XUtVwkVWqiouy4DmPfuSutX/i/pbNctFRD7vG5S2BzS7WeryuJJlYzhgoyNk2qNKe1twwE6bNiGvbczhqU7+Z2M49KyGUpHucyLW18atiNjwxIMenP/ppV38/eZzjCNR9lXs8GqrVRWqqLw/yr0uBIM5/4/6Uy+9ZQ1Dz+DpDnSLGaquV55WJ44KmAhTIj519c9DePFX71zvNzl1TVZcmuNk3ZCiRgw4w48YaDFp79/Ly96jOZPLwzrHFqpPeorfwUWQWJJGeO9RmxK8HfVLJCbNP9J8SLVbHIyia7cGCwI1fE9L2RBCW7zeEMTxV3UMX05uvtAXR5prAjIsYaouP1Q6erFFFsrtPdv5eXYjVXy10/wD86c1W+5G3ddW11X1LU79IaN03NKGdHLFkikuDMYIckjYxesHBLpaa9Er3bRfpLLc9HXlfEqWsPJK9xSOI9d3saQxGsY1xH12F2stEcZrIrI/D6OifiZxXrKGSjyBzRqvMAjTBGVnwFd8u1jN/FdZHk8KkTpu++lWOZ3Ex68h0jDh5XcxiI7vrytxy4HdVySGN5H+vZzPR9RKl7bqkeyuJBJDQyJRJVRYxW80iFIY3swWz9K43FK9dzfSHErIHVVc2HEfyy9Y3jsm7Lu37qLArqzH4242sHqZkqJukQW+j2843nIc1L5VdYuc5yudjBObG65y+fY1N3azbJEpoyR4qos4IpNjL5RNIeRW4CZ7EdYSmiVcAr+XwlSt8bpGUcUoWGUvuJQByo7wSG84hjYIbWCa1jNX+KwbRjnjakeVaV8ismPjS2cpOEE/kmzYDl8PpDMrFbTI5p99x4xTuubNoPFoZsqNSwRiAxqalyiyyqQ71c7svF3nrqhZ0qGuGvn2KRoREKRdmSzSb26eRGq8+N0YKWGjGIjpHvs2qG2dOR7G/icIl9yyquJvsn0fcye51E2SnguuHsdkLHjTSeGp0p8yS8xPPtlMWXcKJnxMajGNa3y7LsRD004IE3Jw6pXBQthKGrS/9BaBWtvJAx+GgEQwBlb8P0dnpOniFk7sV/dsNrAN8PVw4PfcqjuVPZ9wiKvlqZZvh5hHhFX8P6m/jtv49qIq+WlsXQ84LCM77nWfi6eTyF1iZuvjNY/5/RsuSGHGJIlEaMOaZea8I6NG5hV2pzt6ilb6kleWOV2uF4Oawmn9wxN17OJ0R6AhWQPB9NPZZ1gJY/Uy+S6uzWBK5lRqLum6L4djU2TXFCO8Muvsg7o6ksGWdWCWzbXEtnLfiXXDonUw6v/r9GTJIYcYkiSRow5llB7+VyM5hwGMc9dmoqroy81LTP04jG/E9qaa5rvhci9k7+CPrhaid1sF+frjdsut9WkQU+vPEP8GOXBcZtDwZ6L3cJRnEwoXo8fZxPhq6NEmNTWA3Hf6vupXfiNJ566iayyK2xoZQXq1q8Orfus11eZ2wuKDf71iO1h2Tnx+Vyu5iQYUoM2KOTFIhA/RRHtGxzyORrM7yl95K7vGcra4InmIgxpu6JDFDjP32V2jWso0KPEUmwNNcrV3aqosK1INUbI9tjuU8d3Ku7eF5+WVPjL5+vkNuOlgd5KxSajZ5Wk8DCkBVuXUit376iazS0g2tiw0Bj9+GMghK6WF6qo+y4gssq2REJ5V8qTRXCEROU1fMDYQxSYzuYd8+SOnlvgrtJLe2pF9qxlaPKkSPzzlLrFcblWkkZyI8MPikn4qAvZg2UPopfRkKrq8RGFG0gnI9n0TxMyfrEfUQH/dMar3I1qburIKRBePiXIJSta2OxezGcGU42SbhXMbGo6uMxGhr4yassaqZ4laSGIbskpTUdgoCrzjoZCo9QOXwx83o/Mg/Jnr5NTpdVix+fkJOxu2hOVCQiPb3KXvt3U+9ZjNpPK1qRSBZQ1IaaA2MDdy9vESjVyelIzfHCsg9Ey+hJd+CRUVEVF3SdiVRMMpXR1G+Di9RDcjhxGvf5a4pfn12o0NJNY3bwI5qscrXJsvDTJ+7FbUzn/cfRGf5F6ErOlHd+OVVVd18VpIPSYhyp7erZ/UsDLrhvTNnT3zpDeYOW3zaKvQjWo+SfJ7kxlI6wO1cezuSIrQ2+xg53DHaY284tnPhl6ElhF8jzHEnNktTlUbkexrk8vfPY0jHMeiObl9C6mm8wkVYeB5Jy8lZOf4dvFF346C3VSm0AWreH1GdYae3rh7kXpmt7vJdvO+hp0oUGGaVJdyhv7Q1zammn86aH3k3O9PutEdt4JqX/FG1w8AgsVjOTzmVceRaCmyE6j7YRb7MpEcOyLkOGOra9ZUU7jpw7m99qZNdIXmT+xNxzqiMDtVYE/qtfaSGcjGoxqNamzff2UIFjDJGlN5h3tSemnuAbxTC8pbLYyDYk2k9nEwnNfCZqAnLCCnZbROgXnYn3dHZmp7QE2OvtV0wNhBDLjO5hfQvFe85iDp47vZENxSNGxN3RQNjAaJmnu2TssG8s0ya4dHQuLAb8y/FrChf/MrNX+ZGNIxzHojm4jVFqcnsQORej79R+HqX9SG4r3xzIiPKNwDPG9Nn4fJNLxyGaS5XE1nJutk8vbyE3kG1vZIE04XDd5FGoiOY/wCLhTedM76iQ72PoS5sB1dXJmm+GZJLMlmkndzFx+L4OkOTscu69l2PllI/5cLLBGSZUB66f8S6q4DoWb2L+X7r/oGyQtmjjOeiGc7b/wDvbKkDixyHO5GDO98+xI9rfbrorYUAEYfw6lF79dmL5p23cfdEO1NRTkiyRHA7lLR2I7apjTReX0HxctvGNVCdoA3GMwbfMI2iE1jPhKvy7bgPVi8yfFXTCwJwZQF2JXTg2cIUuMu49vHf5/8AQXNksPiKEpHbD7Js2NBF1JZxhbc54Nm46oPUXmtsjmcu5pRMcw0EBzJE9yHk6yKV3Kjmn32WnZzzmr6hGIRjmO8jjURXDd58JLblNJqyu8PoIj2jG571RrL2wdaXEua/WOg3I866Vdk9RU3TZdT4yxjq3+TF8gNSSF8FJErLKJZgQsMzSJrJcxDXuWPARkiTgttLuYct8zlV3veJVW9JArIbdxwcot4QWiFLVRlym8lewkt6aj0F3aF51jnVanAhMVH2h+osOJHhBQUUTBDtbWFVi55p2s1UZBLyC36UIfd4HEyZ0qyPEavtUI/ApPVvQ7OYZNUs99ZaxZg/MJGmEwg15mfQPEaw7hi8hGrsTVaHoQhs+ZV+Xqyo7JIuR+pUYkZ/KRPARXhejxPcx5bawMPplnynsoqo9zYMixvDVNWR6mvZEip7HuOmv9dOby6ystpXtbYVb+ccLiANURJsJ7VBmVKX4pDxK3IKczdu/wAbZJVE7xQ9YumWNWNPYmQmp3uP3R0pDDdHl5rTgRekQshbXOpshFZBG2KwTJVpOaxvUPJx2pHTVrI7NnEzmf37IDI1dx1g+lCGnz9ScLrRSM+euGth37GAscu5PoHi9O6llDhNXwrxdeYJny0q7r6xGNI1WvajmnqBu8QvVmpIXRzKN+yrwpK1LGcL+bTviX3Cr7G+spyH0E0C91cdamcOzrgyhfDkGEglucetc2OaypLGtVe9xSNb24+5X8O7JOypp51qXlhgVzcZx2PSB3T72VkVilXTyJP84WKeQ1q7qqeCbJ608fSlkb8uEU7pW0qE5fZ+gczmd9yixLvumOj3OQmiL7Pub1m0hj/lg8zueTRHKuzNF+LtyixLUjiTWIrgxzDkAYYLkePt5vY21ZQQWMR8aWznHBmyMNuSwpfMWBClgmx2miFaUWpdLWy1VZEEDnFwumf8ICD0uCVS/wCZLTVbRxK+sNAH1Hx42NU8ddxwBKrGoxqNYiNbriLbd7sGwQu3FRg3e4y+XrXw9ijJrEJfccmrj77J9ATTpGhnO7ye5Xvc5y7ux9nLCV2iL4+5tw9WIqp8THOY9r2Ls6nmtsauNLZoqeHbcwW2VZIiP8NYTdPrJr6ix3Yz1cppGXVeo/BskR59PMe0ZCxpELPLASIkoIZCB4gxl/OgmbpufVnzBMTX9vav9mZpc+rvlGl6hnWTFEZRuF2ZXctpqtxGqneWNfIPt4ufHE0IWjb5etds5ofNpqq1yKngtfISXAjSE8v+/wCcH7vidm/srG8leBNL4r7qyjd2P4fBwtsueNIriL7S+KepxBoFM1bSI328GyPv4UgzH/i/VyDHYd03cyKORNwWzC5e7PDIa/Frpi7LAJpmLXT18IBNRsHtir96gAJSYRFhGYeYXvRNHMOOB5jORg8jtiXNm+Q7dBUQkVSFXz9ee3nhGTswM/eMRrXfQHFIvTxMjexicgGp7u6aiw9186GxdVW0eWzfYJWHCwoncwyp479q+Osxx4lTJ9I1vM2PiOTDthJHkqjJ3u86yNJrlr4L942q+WsUvj4jG9pGI5i7t9YiczHJ2cKi9TFUb9AcXX7Y/FbpibvamifD7qXNFG8HLu+ZLJKd7fg3XDW8QgFqpDvvFTdNKmy9pGNKNzCNRzMrxw1LI75A5+6YxmbDIyNbuRhUVHIiou6evZ2cSsB1ZpmjTJMuk2aOBF3jxGNc9yNYm7vRC92+L797XDerXps6FMfFf4eLI52HHzjXdPWJ4PcmuED96OYz6A4wf4RB0D84ei/L3BzjA3mK5E1LsyF3aH7tmo0E8jxa3Zs2tJGGj0dztAYkczCherCYxmkaexgLJzY8tyc6bp6j2NIxzCNRzMlw1WOfIpvbZT5DZUj+k1yuFU5lWzURp3LEKN7SMRw3I5vbY5FV16L15Y1fb54cqKysD0GyZBpRlLJK8pNQJoIv+UqqErDDR413bYwmymbp4FIxw3q16bOjHfHJzjXUOUyUzdng71T/AJ5NcHv8MsPoDi+n9zQl0HwKzRfi9Zyo1FVyoiS7VE3bGTdSPcR3M9yudFhmkr7Ddmxa0INlcnUfpU3TZfK0hd2fzj/K1W2tzWRUPENIZEj8QJzdu8xY5dB4gx1/Oglbp+e13ReowSerZ3E+yK50qQ9yae9z13e5XLqLNlRF3iyChUeV3Y02Sc5dEyy7enjOdqVZTZf8TLOVBCIV/KJjnulQJURjXSgED2AiHkflCVUkQZEdvMUezauUsc/L/IN7SJu1dWEJspm6eBDCeF6sI3ZwiPERHjXZ0GU2ULfyf6hvzn64Pp/dU9foDi0zmxoLtJ4Lpy7rv6syYOM32vF8qWWS7219kbHEcjWNVzoVU1uz5PtKiIibImydhDMZ5r4nN1mKxUTkkRnD8U8WYJlgaoDq6yGjoaU2NWg0MyFDc0mCY8/4Ybma4hUFfQlhsgKXnpILCtUxm8yEhRiJ7QGaPSCd+S9zFk1siP4qzmbqnkUxRtj3EVw9QsPoZbepFmHOyLidNH8UhoR2Q5FDoRui1wgrLMWVZzHEK55zwagYtnyNnvPOiRfZKcbFJdVxUUSlVyEaojOb8xvVNnNXbQTo/wAF8HSo45I+Uialx3RjKN+qp6smj28vUVd1VdcI2cuOyH/QHEoPVxCYvz1HdzxxO7TlYFivIuySrUj90AnI1VVy7uVVWFCJKXw9lkWKKMzYaePYSQxvl7SkO9/z2TtNEY/xb7LokufUk54piB1XcQJoURJcdhdZZdenbNJKNe1sB7I1Owj/AIS5NIV69IImtTJpfzEDQMnX/Pj6Gtfcc3RVWHlwDxl9pvMxrnMXdqqisdaOHzNLK5Hb868++8IIRgasduzbUrgV0gg/B6ruu6+epa8xGk1H8QM7ASdvAnlf8qtAqedUzmnD9SQvLHI7s4Zh6WIRnfQGTx+9Y7ZBTxXVU7mgj7bkqvlqz+XUCrV+xJPg1qI1qI1NkVUam6rtokpE+BN9PI9/xL7gsNjvFnsqUThO2fqb+l3bepjEUg5Kyio5gj3AB+DWkcpJPXnsM5qNTK5rWRu6tXcivUsSMV/x1sLrxmmLII1tnLixIJB9XvDnKiuXlTZNP8Y8RdRvyGdti/cjW/KhF+YX1LR/JBJ2YpH7rjdaJfBf+/uRHNVFTdLGMsOwkxnedC/cRGdt0zlmq7VY9o5o1eiKmjKrRuVvm5yuXdy7+7sW+w12vzMZJ6gpBhPRwyva4eRFUfJJjiNqQ5hBhMMSC1IHFknUxHGRxXo/lRreVkthJNVHEB6K4sU4vzAkb2mTkYAfzYnKxqdsp3Md66rxdKINvz7b5+wRs1BjrLmx47fiY1GMa1qbN+gOJULumVncibMpickxG/LsvBcwGkTsgG68Vj/5lTdFTSpsu3u5TecD01Uv6lfLjr5+pEgtYxDTN+Wqr5N7PaACNakPh+XrfjJjEE7DqZY/S7u5FyHFZlU5xBIsiIwpGfA9zdDfKP8AA1xtE5hu2NGE1w3dSUjir2vdyMc7UUfWkjZ6t0Tnmcvy4bw++ZXGVU3Z9A8XoHPBhT2p4ieoyNenmxyPajk8tHGhQvGvk5qtcrV86E2xHiXskpymd7yETutgiL8BhqIrxv8Ai0EJDv5BMV7gRhQvaLymkBgzZwyyGDc9uK3T6WxR67rGAqHRiicjm5XkkPGhgGSO6QajmR72sZOg8zE4oDQNtFZyIxYLEHDC1qIiHCKQNRnG17MjpO4L1426xoJXEGqO7J7+UO2qIW5nkX1HORrVcvkV6kK96+fCCByxZs9yfQWS1/pWimQ9vaVFRVRU2WmN1IvIvn2XIunL5k8ohejJGTsnJ7bV95Ys2ej9TIo5ZUOkhg1ZFhi+LqHcp3q3piag2UmNbo09immNaxqNYiNbldZ3OV1wt+44a3KkCteZ33mU4xDyQYHGIQRaGpj0laOHE5lZxbXmyWO1NNTlaidmY2CuVteFfEI0ENGp2T38xuXVSLpwm/17bg3TiK1PiRN18NYvXeiqGHEVNn/QXEKr9GZKdWN2DVH6MtEX4ey4D1IvMnnqtJ1YQl+c1NxIvryHcgXOTVQ1SsN4+PaYaFGrV06OVq7cirog3DVEf54vSpHG2XJbufssojJ0IgH6gSTU9sMyJsWsmiNAQ6PTo1GY1FtY9yilJ1uI/wB7mwB9lnMZAhEO/UbnOZ8ky7v05eVqqvkNqnkI35tRGtRE8u22P1ZSonw4BV+lMkjo5u4foPiZUekaFZAm7n1Xn7xGa5fi05EciovlIEoTvGuqAnsFHo6bhd683+GdrH09k66mIiETb1CvQY1cusfjekLgaF8WepmkHpyGTGJ7PDucydUSaqSq7YzgPom7ZONNQzMq+/4lK3syWcthYpGEv3DURqIieWp7+UXL86QXNJUi+XbPP3eM5382uGNR6Pou9Fbsf6Dc1HNVrk3TMKdaS8PGRF6FVJ6EjZy+x2XotisImqZ/JOamlTdNKmy+tKTeO/VAn4Yi6m/G31JzFcH2dCI8REeJ7mPq8pezZlgznSJLBLHzxitI3stYiToBgL543YLUXgTP3ayCXnFtvrm73xCsS+aZNZdwhcg1/EQxdMe6/F2TCc5l/pUC6cNqr59ttJ68jlavsYlTuu7wEXZeixqMYjWIiN+hOIVF6YplIBu8zVTK64eRy/eauWc8JV1Hf0zjf2HTYrvWN4ifqj/gl1N+NvqmisJ4p7LixyD803QBiRyIQJHDfXZWRmzZw+okGyiTk/DGa5dZbD7tZqVqfd4JeNLRcxne3i5kb6SspS7IY77OwfJN8PZIJ0xOdoA1MZjE01EaiInkeeAPm/dS3Dv8oaJp9lJeip1Nk1w3yCuqHljzWKIiKioiou6fQvEjHvRdl32MzaHHM4BmkZ5gK0wmkYvhJZ1I5G9kR/UjCdqYmxvWL+W7VH/BLqb8bfXNFY/xT2XFjEH8t0RVRd0XZYOQz4uyKTrMt7qNa13IQTxSIU48JshoXbNWS98IUMXgwI0GNGp2KqJ5rtqaZCORrV9mEdsYikVvM6TNOf4nbN1XV0yxN0oMch30XDZFH1LqQ5rrnhqLpK+olPQkyMaHJJHlDcI3Cu8dKiEq5L+Yn0LbV4LSvNDlN3Fe1Uimsyw5Se1Wy+7E2d+UioqbovgdvIcjdU7uaAzU5Paavqo8kUnKvi0slj47uVfaoX7xns+c7426V7U83NTSyBJ/Omlli/qq6WaP5I7Szk+TF0s5f9mu/P8A9rdd9J/RuiFUnm1u/aN6jXdvmpSL5vdrnf8A7naVVXz7GNc96NY1XOpcAtp6NfK5YQarAKeFs6Q0kwkcAowkHHEwQ+zirTNk1jbMTPv8aslqbyJMRfZaqORFau6fQuZ44O/rtm7NmSAEjHIE7FGWqndJUCZfYs28s4uqB34cjdTvgavqFkjGuy+KyTdZyeGyaGR49+m9zdOe5/xOVdDY8juUbXOdHx+3kflVstUBg2QF/wDo8iC4cXL/AIyQx6HwymL+ZYR26bwvd/NbJpOF7Pnau0vC9vytl0ThgVPy7Qa6Pw1tWflSYZNTMUuIrHPfF5mMY57kaxN3Nq5Tv5ETUqEWMxHE5dow0NJEJzuRG8MB7e1aPVcpoyUFq6IR/UZwviQ0hNmMGiy9ZHn8Kue4FezvkipPluTuQvefR0CspgwWorzypZtT4zJsI8YvwSBOjnIEibP4f2PpHF4quXcn0Nn2JpcBWZBaiWD2uY9zHtVrnOV3xLvrH3e2Zupifc9rV2XxTfSQIp3K/wBvdKuKn8irp9VFcng1zdYJVQ7XIFiWDHPHExeki7dKsjaEEYW8oRsG33C+WntR7HNXyr2Ky0YxfPVuzngE0i7Kip5wzJIiBMnlxZrkPSBmtT2+Fknbv0fWR1sm3gd1jTu5jhYlj2PI2TZGYV65lj7V5fSI9RskppK7Cs4u7XI9qOaqK3XEKJ3TLJqNTZvCCdyzJ0Fy+H0PneHNtWunVzUbPIx4iOGVqsfRLtMcmpX5DvVQj08nLpJJE+e+sDN0c3iKvl7p3wr2SNgZJJRfJZTPkirqUZxRPb5JrCpHecVrH6yWL32gsI+268NzdPIVZoC7hYurbE6u2mOkzmmIUeB4+3zhvfoOJ0QfgrI66iRI0NnJEjiAzXFePvLiS01gUlY2W17k8voji/EEKXXyRja0lOu09mpP5DvXqC92yiCX5e6d8K9l6nLlM3tXz1wpkdXF1HpU3TZdYt+DzKOPUJdwJq9s8gCZzKilQrFuc4avjUB1GyPKGr+LxxSJV25Jio2RWzobzO5BudriQNH47zL54e1X5TVon0TxiZvBrX6q12nh1K/Id681VZKa9vnGKh44it8vcu+FezKE5csmdpfAr01wdP8Ad2cddEMNnm7xI9A529yeDQncJuyIip313+1Nd9//AE131P8AZrvrf9q6kyEK1Gt3TXEuQg6QId/a4YxVkZYB+27foji+n9zQl1AXaaHUxfufXsk9pi6w6R3nF6wnul8l7M0Tky6X2yfA79cMDqO6kDRdk1ek6eTzCN1/a2k2/jk0TM6VvlIe/Ts7qk8mS3aZndS5fFkpmqu1h2g1fCL1EVURFVV2TNLhLa2XorvG4SVihrpNgRPH6I4uDV2Ox3pob1GRr2+fpNDMa0reRUXdN09axT7pq64VyOtiyD395xCZyZOR3bNTaS/VTYyKuX3mIrUJItLq8f0upIPoGHX503ZWkTS4JkCJv3JuuXlJyl3bqpjYk1jVlzDFICfiURNxdzRZGb1AW7B6xtZFlsu1G4AW92i45SyLyzHFjps2FFFCiBjR28ovojJKpt1TSITncq3FPOp5ChngcNdCK8S+yugy2P8AB/sr6k1N47tcHZP+JRVX3bviXXE4e1xGJrvrURNmqunTn/ytRNEe4juZ3njcL0hfQIyj6jIkWPDCgogRhH2ZLgcW3nPlx5CxDH4aWTfyJkR6Lw6u0XziLoPDa3cv3kiGNIHDKO1UWfPITVTVw6mL0IAGiZ9FHCKQJRnGwo7rh9VTUc+FzQjX2K2lLu6QHqR9CM8fwu8BzWr+Ym2mEY/4XIvYZNwvTXC2V0MqYPfw90T8x2uKbPva5+qzFLWwEMwxMYHIcYPSRBHMcZUxyvbaXcOERzmso8eraRq9wjo0n0qqbpsvlf4JV2fMSMncpF5h9vU8zngU4OxpiN8nu13svzVF1j0vuN5Ak77J7o/5z9cUm/h692sW/TtdrPo/Xxo6onjgxEFllY5fpq2xmotN3S4Q+pO4ZR3KqwbAg9G4a2zV+6kwnpJ4fXEeKY73xFTWPS+/0cGTvuvuZfhIfrign93wl1iLubGq9dWUfvdfJjrqEd0OcA6fGN7SDa9i7t+m1TdNl8r+D6NupsTyThTM7xjbo6r7XuZyff64np/c8VdYM7mxaF2ZADu15OEnlg0vvuK15FXd305xbgdC6jzGp7PCSb0bqTEcvs+5sE9pi64lt3oBLrh47mxoSdmct5cpnba4SFV+OyBr9O8UIHe8ZcZqe3jc70bewZe+zfcz0+7auuIbObGiLrGMrHS1joz4rzOn57OMipDAKOkyUaZIeeSRSG4YQCQcaR5mq1305NjMmQzxi/lygPiyjAKmxMOn+ksagnVd3+4lpuB2szF1cYnt7IXDu5Psp+7xm0XD6vgEaac900qeHl9PcT67uWSOO1Nh8M8kiVgJMKyOgWRZceWzniHEZnqq5Gpuq7aJLanwe0pCvIvtLq1G01ZLE9Ua3UYnVjCInl9P8UKzvuPd4Ym5dCI8T0eJ7mPh5ZeRNulZHVI3Ee5H+aOIbQuJ5k/OrBu03ieHb2qsiafxMGvwwCJovETm8q9zlNxAmL+TDjs1JzG5P4JIaJJUyTLdzSpBTLVV8i0nCiQ2K8sGOkSFHjo5XJ9Pva17HMe1HNssHo527kjLGfM4Y+awrLUjh1di/LWKbRcKyAfnXuXTsWvG+dZJ1/Zu6/4uZpMZu1/0uXpmI3z/ACrTaFguQP8AOEjNB4cXL/jJDHqBwx9pFn2G7aWlgUwOnXgQf/p6eXGjrseQESvvKpnx2cFNPyekZ52kXUc45IBmA9Hi9QxRgE4hiMGOLfVUs6Bj2MYhfpDJLb0JVPm9Bx9faeL/AIt+vtPF/wAW/X2ni/4t+qniGOxs40NK57F99k+HQ7+UkoxziPkFSaktSwjqjl1hv6Wq/V4o2p5N8+BzKkbXDe0PaY9+Kcry/SGeUcCTQzZSxhtlaxyKObfQIxk3FGiR4jOSKAQW+/4ufqSP2Yd+lqv1eIGHntJPpGsRHniYheSToJK8w9YtSsoagcNjud/0hmH6XtOzDP1VV+pYWsCuTedLCDTs5x5Hbd/1ByWmnORsawA5+iEYJivI5rGPuqtnx2UJun5NSM87SJqst4Fp1PR8lh9WlvAqmc1hKEDX9vqDm27yTart4FqxXV8oZ+3i5+pI/Zh36Wq9T7evryoObMAAn9pqT/lIev7TUn/KQ9d/id2HIWSFAPvalnx2cFNPyijZ52kXVbYxLOOp4B2mFIkBjs5pBRia+9qWfHZwU0/KaNnnaRdV86NYxkkQjNMG1ySpqnck2aNpB57QPfyrKezUKZHnAQ0MwzC7DFGEbiGe0Y5OZUEdytfYjcoM0x8zuVtixqybmujV6ziyxd0gywzog5MV/UB9BZh+l7Tswz9VVfbnebEjnJXU7+V+P1psgvRRnEequwmhWH3dISJq4gvrLOTDKu7sIzA9ZJFEsCuLX2cIVlXmiHV3RzfDvQImSohnliaxC+NTBniggcacuC5DZq6XNIBp7Svk1c18WaNRmrpsiumDlRCKM1JYNtamLNGmya4ufqSP2Yb+lqvWTY7U2zVk2nMN0OrPZ2L41UIkjVNw1C1rX28pxH2+LwLKpjV7lKEGY40XHZQk6vWj64Sfpk2sjoo1/DZHmOK1uX48THrBoVJ1QaoryyWiFR0ICrLJw8vOgpldFeQo3hK8ZWqwmJ3hqK2GZrl7uioqIqeKW04VZXSJkj8vIL6beSlLLIvT4e4lEt4hJ9lzEFNwOikBVo4zo78noJePTOgdecHD53Ph9cv0HmH6XtOzDP1VV9mZ2i0+PSZI12Mqqq7r58JVCO0nGMRjNLYwk85kZNcRXiJlkooCMIzWFynTMWrjPXd3E/8ASJ+zg9GE+TYyHsRTa4xhahqs6J7euGCquIgRezi5+pI/ZixhxsPrzHe0YslyhuR2ga9DuiU9NVQ6iG2PAEjGdnGL+CrezhJ+mTdnGT/SezhXGEPGUOxiIXXEoLQ5dK5E27KNyvpK9zvPijzf2SLy+WsMy4mPo+OUPXh1uY0k/ZGTWhflFQO/pCxmqzqYjWHp6CPBlOG4v/f5kkMOKWRJegwyeJwGnVI1a8gsZySHkAHOjczDZh+l7Tswz9VVfZxfcvoSG1Ph1hGPAyGVJEc5A6+zKD/58nX2ZQf/AD5Ovsyg/wDnydUNYymqgQREcRnE/wDSJ+zg3/q/Zxk+Cp7OF36SF2cXP1JH7LS4sJtJBjOY8VbrhlkffonoyW/8T2cYv4Kt7OEn6ZN2cZP9I7OGH6RB2cUf1YXsoP8AAq7VrBDZ1x4chPu8hoptFLUMsa8nZR5BY0pUdCkO6eMXYb6rZLCnI/8A7/xbM8eOgG1dm64UtKuUcw9+nnBUDidm53Zw7hul5ZD2T2dcTILpmLFcxN3a4ZT2wsnYwi7M7JcgUSMSRIejAwJsawiskQytKHif+kT9nBv/AFfs4yfBU9nC79JC7OLn6kj9lXUx7jAYMI6IjbKEaunGiSm8poEs0CYGVFfyGx23Dd1QpgPDs4xfwVb2cJP0ybs4yf6T2cMP0iDs4o/q0vZQf4FXaz7I5mPlrlitG4YXxLauGTlGeLaYBTTN3AaSI/J8JnUgXSWPbKia4Okf3myH/l/9/wA1p3XdAaML8/oubJ6BvuXYtW1uP1KdGSF+uJGUgsmNra1/UBHCWQZgQDcQuBY36BgOfJ2WdojGkG5hGo5maYueimOIJrn17XK1yOaqo7H+I7WAYG6CRzzcQ6Ng+ZiySOsbW2zmc2DBCoYdLWxcfqGxxuRouJOQ10mk7jDkjkG1wwu4dVLmBnlQLUlx1i95Q4ljcU7iFZHgBgnYfs4b5LWw6juE6Q2OWVZQogGGkywCFxDto1vkHVhP5w6wbI6wlFCiEliDJ4n0HfYHpOM38RrCMjWgsV6vM6FEyKolicQNjG5eKF5Bs+5R4Bmn7OGeRwa6GeBYFQCksIY4jZT5cdsbifdw7WXCFAKhm64a5DXR6buEySOOeZMjQhdWYcQB57Yx7PJZB4b+oHWIZRVyqqDFWUwUvjG37mqdrBcuWkd3SdzPgQZsaeBDQzjMPN7GNBxyc2Q9vUaiuciNRVXhzQlpql5ZbeSV9AX+K1d2vPKErJBuGDeb7m0VGxOGMZrkWXYlIlLQVtM38BGax/aQbCjcwrWvZacPqeY9Xg6sR7uF7d/ZtlRIHDWvC9HTJR5OoEGLXx0BCAwIpsYcyGaMfdRfZ9Rftn19n1F+2fX2fUX7Z9Np4jaT0UiO7p9n1F+2fX2fUX7Z9fZ9Rftn1a41XWkSJGltIovs+ov2z6+z6i/bPoWBUYisIwZ+ZyI5qo5EVHcP6FXKvSMmvs+ov2z6FglKJhmNGbb7PqL9s+vs+ov2z6+z6i/bPqTjdfIpQVRGk7p9n1F+2fX2fUX7Z9fZ9Rftn1eU0S7iMjz0eo/s+ov2z6+z6i/bPqLgtLGkhOIZupkuOxMhEBkwhmJZYjTWAmtLEaxxOGo2EV0K2ODQ+GYnE5plqYuqTFqmnVHxYyON/wC6v//EAEcQAAECAgYCDgcHBAIDAQEAAAEAAgMREBIhMUFRYXEEEyAiMFJgYoGRobHB0SMyQnJzsuEUQ1OSosLwQGOC8TPiJIDSBXT/2gAIAQEADT8B/wDXzNxkstuatBmtM1pjNC5jgeUo+7gb8+S40U1z5d6OEM1B2LMme5zCHsvdXHUVxmbx3kj7Efe9t3J9om5zjIBD7x1jB4lH7pm9Z1Cl1zWCZKPs+u7yXPfLuktJJWiYXMiu8VlEaHd0l/adb1FcV7ZGgfcRbW9GSAm6A874asxycHssO8brd5Ke9gssY3oR9uNvR5rWIbVXIhki0jBG2rL0jujDpWLr3O1ngOK9s1xHb5nmFhEFrXdKYZtc0yIVzXXNi+R5Mn1ITbXv6EfuoZ9b3jivxXi/UMU2+NGvGrJYTsCGNzIQX4rh6vujDhHCRa4TBQtfAvLdSGKuhRT95oOnv5LuFjcIYzPkox1klXiDe1mvMriDDWrmMwCB9JGOOgaUOs6Tw98aG35ghcQoYscfvW56+Sr95BYcXeQUd+sucU8b5/F0Be0/i/VXklQfXfo0aSmCTWj+hjG4fduy1KG6s1wwKbvYzOK7y5KbE9C0afaPX3J8xB2x0pNxPSjZXAk0da95RHBoGLiULYjuM7E/0JuZe49AUQVXejHmgd4+UpjUo/oouWg9HnyTbY+KfUYctJTjWJzKNgaBMo/iG3qC/ttDfNbFjTYTiAZjsT2hw1HcysgsN2s4LBsES7b1i2LvgUDViMyPAQmFwGZwTzNzw0lcYsMuumGNpiax9JHkjskWuF7GZ9N3XQ07+KR2DMrGK+17lxn+SyZvU4AklbQ0dm4iiz+2M1EM8yTmuJDFY9a/x8lEfXrESwu4B/rNzTbA1okBRhEYLDrGKb1EZhRGCK3WLD39nJEP2uH7rbPr0pu+iuGDUBKHCC7qQ0IbHZPXKljS4nQFsmJvW5ZDoCcPSRcz5cPscF7DmMQnRNrP+W98eSEKC941gURXFxPNbZ3zRuGQy3D4ghjuTRIUxILmtGdimYcNrhIjM+HX/QwIxqdBsT2hw6eR9QN63AURWAnVf47lrnRj0WjtlwWydjirofWd/rq4LZUJhZPBw/hoe1rv0y8F9nYD0CXI6GJuc7BA+rjE0u8qBsRh7BuA0lMhhnWf+vBbHfVJGE7Qesdqe3fDI4jcBjCfdrEHs3I9HWGBBrN8U9u+GTsQnbHae1yFdv6zyNhibnHBQz6OHnznaVKdlH2er1LSVoNFQovaOw8FFbV1aVXk8D2DxgnibXC4iljjDd03dx61sYVfeZgfDcBtdhODgtkGbJ4P+qMGX6ioh9JCy5w0qIJtcORbRMk3AKEd6PxDxiii3fuogAhobZecaNCzxCe2wpzWvA1GR7xwBcGNYDKZWoOCy2t/kg2q+IbK+VihPBZoneP5nTEbIHI4HrUFxa9hxzCiCY0aE1lZpAmtEQjuXPeSmmsYlxd7vmqjh2iiKd+3iHjBOE2uBsI5FNP/AJDx7R4qNgCd6x8E611BtbAbYf8AI4almYYJ6ysHwm1HDqTt9DicYI2tUZ1Q/wCX14Brq8N2nSuNCFcdi+GVjEjCqB5r1nvN7juBZHA7HKMbeYeMinWna3VZ9CGMU1++yiq/wQJkUE8+gefYdxdR5E7IEofMGLqHeqMhQDVWxjvAcX/TyUU1YTDdrOhZMNUdQRs24CTm681AG3Q3DFuPZ3JpwTCC3oThPh3CRBxUU+jdxeaVdAefl8twIZPare9C/SKNjiTp+23B3nyHhNLnFPO9bxW4BM7TTXPeornvP5peChMqw2OFjbbTr8k6KYYOADbJ9ih2xGlsjLMKFYJ8R2H8zWe2BD7uFO3pQEgP6B46tIV8OJg8ZoWQ4jvvNGulkAd5VWh/YVDNreMMQorazeQzZRI8s8G+PUnGQQ7aa01Ce9h65+NEPbOuuE4SIOIW1Thu4za1n9JfDfxXJji06CEQRWN5k4gUMqsHQ0ICVBTVE38CeDsR48hYLZyzOA61FcXuOkq5u4eFEG2s1i/sl1UbIg7a0/5Cfb/QvaXtZmB/vcsEyStkRSQNLioTA3XRGjl3QTuBY5QnB7TkQorZkcU4jr5Cf80X9o7+xOMk0S3DLVCdWHkognLinEf0UKpDnk1zbfmNPON6/Fi2DoCy9lngE20NHqMPjQ2GQ3WbB2lNBO4IkmmSf6aFr9od3VyDaJk5BRXkgZNwHUm70bo2tTz6SH4jSsRi3WKB6zp7xnmobwGlrZC67hnN2uJLA4FNsAe0Ol1o4QmAHsE0b4kcy71+HCsHXehg0LBt7nagoO+ivNr3ZDRNRn1jqb9SF6u5O9KgvDpZjEdSeA5pzHILZB2hvTf2TolM691gclgcCh7TTIriuiuIV7nm5jc020uN7jmeDYJRoDhWEuMuNCdPsKyfDPgjg50u9e+xaIrQmguMRrpiQvWUNnnJcb1nKKZWmZKO+iP4zlA9C3ov7Zo77cymNdGxiYJ1Ydh7OQUKGYjtbv8AXapzOrgMisjahknQg4dB+vBxZ21qoElEba3I4hG0wz6h8kPbAm3rG4Ztg7AaMYhsaOlOG/iy7BoQEoelxuT3WndzmFHh1x7zfoT1cghFMMam73wTRLr4JzVFO1O/yu7ZblsWpGZm0j6J4rNcMRuXdmkKIawIy4w8UcWmg+1UkesLmxD4r3x5KNWrh7rTMSNy58396FwFGxvW0v8Ap5oWDdkSW2hjtTt6e/kDCY556BNOMynO4Jm+TTMFRWBx0HEde4iNkDkcD1ovLWVvu35ajuoe+hP05aimGTgDLrzWfqHy7FzXh3kvdb/9L3G//S1N81EbWqPvGuiJvYTdOfQnm8obtrpoKLDbE6xPkAYVT8xq+NFWfXwbrWqGdth6jf29+5aPTtGI4yhjeOP3g890BJsZl/TmsJOqnt81oIPitLmjxXOfPumm2htWTJ+NDBWc44BDewmcVqG9HAVZ0BhZ+UkeHICJFY3x8KA0Dgw6xMdvhm3EJ4DmkYjc1qxq/cu8k0XYRNI8uEYfSPHtnLVQ68I47siVEOO9vcfHkAdkg/pcieD4oQuaKGb6CTi3EdG5cJEG4hVpgg2wj/MVcI/su15I48BgMXagjYR7T9fkjgFfo1IYI3tXdu5obIn+keXIDb/2qsOC7aOM6xY2XJhrNcLwVdWNjH+W5cJEEWFXnY87R7uepNNsCLh5LKJ6v5vNG4tMxuB7EPfHsX4kS13VcO1G9zjM0G9+KKFxQwWIzWLct1WK24d3IAbIl+kqY3YxK4xWZXGNyzNLuyitVBIrQ55W2LNs2Fc14d5KW9a5okT1o+wDJo6KNJo5jyFzmNPeFoY0eCyc8kLJomU71REFUnoozwWYtT7xQLjQEPWG5rFbcPl5AM2S0/pdu8GhYNFyOAXFw3GQRoe6sHynVnfMZJ9zoYqz/KubGf5qKHOe17pyAlLxU5NBWgSWRtCzbbQLtkwSZ/5Bc2K0+CziOLuy5cRjZNh65dyfeSssAh7M7epP3vqlNMqcDksDmnWHdO2S75W8gIZY/wDUPOgtG4zxoxcViTedxo3PNO9PQuNDdUKbDDA15u/k01pcVzpkrUfNZscgJmyR+q4zblmF8QhTtnenCc8Sgyw0xGNf2KVGatQt3AaTREe9/wCqXhyAdAfLXKYoFlLBRgzNDAcLtY79w1tkx6y1SVYWJ5BOgJzSCc5FYAGUk8VdrMSayo2od5UqQF6o3BsoEBpOsiZ7+QBUGI6H1GSBnS4Ao2W4cMDJCE7s3AyKzuURsy0GeKdKs0AX600VWtyCa5xdDrS1LS2lsJoPf4oCmclKZ3BM1FiNhjpMkBIcgdkNbGHce0FPEqWGi46+FvVUkdI3JtZCxdryCAtMt7DasoQtPXcvxK5rL8Rotb7wWgr3Ky50EBEzNICJt3LBJQAYzui7tI5BQnmE7Ubu7tTTNETocJIWI74UX8ITVOoppkaMgsG3tZ5lNEy7PUom9it0Z9Cfa0jEKLaGAyszJRJa6G/2SMFtVYyF9pQYLtSODgibRxE3GhxTRIbgWpxmojhBZqFp7x1cgojN57wtHagmWUvE0DbRLhCnAVw4Gc1+Vvmj7EMSmrxB80LgFGP5XZKBv4U8W5dCh+rEZkcCm2lzr3HNDYrfmchQZGJ4Clqfvtw+yhjJv942nt5B7I9MzpvHXNP3ppZb0UASKB4ASI3OhZJ1rGn2B50uFhyOBUB++bnmFU2wOPFvRnUrskHyyVSE3t+tDbhmck4znQE9yG4ZvVA9NE6Lh1y5CbD9INLPa8+igWOoKaUDWClwFiI3LfSO6P4NzE3r9f8AO5NaW6TDdf8AzUoJJhNayU9aY6H2MBogm/M4lChyYO3cXN10bM3+pns+fTyENhBTvSQTzT5XJ9hpcJFOBHASVfwUtwDNC4tMl+I2/pC0YUuG90HBB21xRzTf/NCHcocSJ2b1RbG6BmnUixP324ZYEN/FOTBf5dKAkAMOQuxpvhy9oYt/mVDO0UNM01wNE91IquVLdZhDFpkuOyw9S4tx6qI++6cf5pWw21YnugWHq7liddp8FgMhgKcE4oLJtqzcjkKNkOH/AJM7AMActaPIbZJnZ7D8R4odqKLTQWhEbqSrFS3ehZijKJb2phrNxCjwzCeMwVWru5zv9bgKW9C4oo5jbteSP3UAizWUPu49oPSLlDMnNdgtjitCJxZl0ePIaIJaRpCb6rsHtwITr9GmgOIQmN1kjZJB01Ja6NVGta6cwNzrWuk2ADFH8S1/5fOSzine9Q8ZoXNY2QFOx7IhHtMPkfFMfJ+lpsPYjceQ0K2C/wDadBTDVc03grA5Kc0HTU9xkEKDkVpKyAms9qIHWs3xWjxWl58AuawlaNj/APZfA/7L/wDn/wCy50GXivecD3JomXMcCjgFpKJlYU94aXSumVogfVFofDiSlWC2ww3vdbLQMrCKBYXAyht6cUfbYyrP3cT1rGJsmKXnquFEZhYekKG4scNIUD0D/wDG7slyHhi0fijLWmmRBvCuRAKnuDaRNe8VoctrcQA6raCPque2v8yyaJcERIpriKG2oKIwP6wtjPkTzXWd8kC2IO4+Cf8A8jhDrFzcrxJC52ynANnob/taGO8lk59XvRuIoikRR0i3tmojBFbrFh7x1ciAN8y4RvqmmTmkSIKLOAe97T0tPCs2REHaaCKBBDPy73wT4Lpa5THaokFze4+CkjZ/ymQ1DBaYz/Nc8Vu9cWGwNHZQ6tDJ1WjvKe/az/kJciYweIjh7Uqsp9aIPdwDdkQydUxPhftDj27iDHc3uPjQ2K+F2EIIffRYrd9/iDNZbXP9y/tTb5o/iw971ihkZp7x4r7Q09R5EiI8dYHkp8BYQntDh08Jto8KZoFjx2g+CyQ//QPVtlOta6MZqLFHUB/pQGOiHql48iftH7SqwU+A2lrPy2eHCVmH9IpmokA9hFDdkudZ7y+G/wAlzYTvFaGDzWZYPNC/ekS60FBFSHpzK2Q6oz3W/Xu5Et2SJ/lcmmYWeG7moEZ7P3ePCOYx3ZLw3Ei3fCaP3UFtnU1c9zWd5XxmeaBk6y0LERGuYOzzQx2kuPcsAyHLvkje0Gbnayr4kTBjc1CaGNGjkS8Ta7iuFywd7LtRoy3QW8iN7QfDhHQJdTj57h8ZtdvMnvuyaHssbIUvteAys1xzXOrN8CviHyXvuPguLCZV7TNYyvcdJx5Fm9rxMFcy1n5fJD76Fvm9OXTRksxTJR4Tof7v28HNEPHyqIJte94tHRanvqSaDYZKK+Ti2+V5REnRHGbj08lz7UIb062+SH3sHfDpF43GpQ4zS7VO3s4OaDnjuW0tUJzYg65dxRi1esS8eTR+8ZvHdYvXFisDu0SWlzh4KEwvLWvJJkMLKIkFpdrlb28Htp7ltclFhuZ1hQYjX9RmnCYPJ2FFIb7uHZJbGilstBt8TwUlt/7ShWH6zQ2M6WqdibD2o/42eHJ3ZMOR95v0IWyIUx7zfoTwUkNkN+VybEeO2jen9ATNkGXS1vJ3YrxE6Lj39ihxRW902HsnwQKbEYe2XitsLwQ6QwWZ358uxP8AWccVsmIYwB4sgB3T6eTsZhY7UQoTyxw0gqpUf7zbPDggwO6iDRz3zPYm2hrhVZ1Y8n9ltEQe9cfPpTniJCc4GU7jquCzhvDuAyT4TmzJzFD2h3KDYjts/wATY7wPRQMWmRWUT0nzLnMIPYVzYxHgVojA+C98LnRvoucS7yWUNgC57iU89QzOhQobYczjIS5QOEiDcUfagOq9l3YuLFh+I8lzYku8Bc2Iw+K0NmvhFfDK0yHiudFZ5rTEJ7gsWwWeJ8kfWebXO1n/ANPcnvAWmO3zWh81EFZrhcRuW3ueZAI2BoiCZ1ckWkCoDK9fH+i+P9F8f6KNEDK22zlPo4cMDBVkWytw6Uy1rx7TTcaNobudjBsmYFxE59tECIYVc3uEgR38kYMMxGxWiTrM86IkZocMxNZQ2Bv9B9lb8zqNobuS0CLCJlWlcQsXRRVaOlTrxH8Zx5I/Z3d1G3jcZPdaehaIL/JG5rjUJ6DQL3OMgFpjt81oiAqHKvVwmjcCbTqF6z2lyF4BtGsX0/ZW/M+jaGpwrBsR8iQvihfECiWsiF4Ad0r47fNaHzQdVrNzV03uAC+O3zWh80TKs1cRu+d1BZuhOkj7TDOlt7nGQC/ttc/uC57HN7wgQNsYa4t1KIJtdKU+Qf2d3dRt7aWb2LHGByb5qIa0WITMhuJUpbYHGvrmoLy2eYwKeas3GZhaRo0KM2q6qbU51Q1/WYaNl1GQZCcpVrZY3qJviI8Ulx6gUzDPSFDMwQozJkZHEddH2VvzPo2hqhQ5bcIlWq2/UqxqmUt7OwnJfhwbGjpx7Fsf/i2t1osljNRp7W+UjZeDR9qd8rUx9cGGQDOUvFRRWhRJSnoOmh7nOiRW3tByy1q/a9sNY9ku1MNVzTeCnENjMwc3zCKgtrHToU95BB3rP5mg/a2Qg6U5YmWtYPhvMx12KJbDii5481VcP1nkH9nd3Ube2gja4fvHHx6KGwQ0FxlefovihPaw1mGY9UDwo2uoT7pq+C2xnfRCDGscfZnWn3ChzYjCdAqy7zQIjwOuj7K35n0M2O0uc4yACMQB0SVrucdCxOLzmTjTtj+4UfanfK2j0v7KIsR1d2JkbKIjWPOuVB2PDJ/KFtrK2qf+qIjqxAMnNOYR9iPvD5IivBiG4OwUMuthkkWuJx18gIYrOccFxnxapPRIqH68J948wvs7u6jbxQdkTP5TRCYHCoBbavdC90L3QoU5OdeZknxW2M76PRfvonF/ZRtr++j7K35n0QGiE2Q3r3gYnHVRAb6Mn22eYp2x/cKPtTvlbR6X9lG2P76NqZ3UfZofyhRm1To0oneRQN68fzCnGE61juhTqxIfEdyAibIAdpsJobBdtmqzxkjCqddnjRBnFdokPOVGx3iN0XHsNGyWGDbneO6XTTDbWc44BOuc1bYzvo9F++icX9lG2v76PsrfmfQ+A0tcB6ruMoTqp81CdWaU6x7OI7EUbY/uFH2p3yto9L+yjbH99G1M7qPs0P5QoxftgeL5VbutR2hwDxMEal/adZ1FNve0SLdYoLGO6ZnkA07ZC94YdUwq1R22WVNafvouyS4Sf9E11aLFFzjgBoTzJrWiZKj2xJewMG0OEiDiE8+jicXmlC0EJolt8K2trC4rYfmgZls7BznnwUMVokV9kzi4qJEaTtZrBoGmjZAbViOum2dh61KtttcVZZzUEPL3MM22yx6KGxC5pfY1wOlPE2OfEADtWahQhCr8a0nxohMEMw4jqs9U71sYekl7UP6URrIrRhk4JorOrPqlo0gqEXOe9nq2ysnQ6LtjHu9UzAEp4XJ3qxTEFU9K2OHVntum6VnZQyISNsNUOB0qcq0RwaJoBrA/jSFDIbIJhRDVJcBKzNB0QfKnmYlaYRz1I+0wzUaE6FDZO1xIlcjcAtlEOc03taLhrtPIH8aEZO6c1k+BPxWUOGGd80b4htcencOEi1wmCjhCO96itOx5/uQ9kCoD4oeywKMwsdI4FfFK+KV8Uqptcq1sta+KV8Ur4pWxW1YdV8sAPBfFK+KU01h6Uo2EFHARSvilRW1HelN0we8BfFK+KV8UqCZtFe3HHpXxSvilfFKa/bBVdK2RHivilfFKhPD2ziG8Gagklu1EC/WCmtDWxIW9dId/StMOZ6wQsasOqeskofexN876dH/ut//EAC0QAQABAgQFBAMBAQEBAQEAAAERACExQVFhEHGBkaEgscHwMGDR4fFAcFCA/9oACAEBAAE/EP8A+fNqVsd2nkAYhnsM0hCuZ7Co+D5h7lNgxYCD0UrecQvh/ZFAqwF1a2+SZNFGDspSGFoZzQIDzorm6tbSIz1pWlYuT1fSQDbiQnWmYPAgvdPFNkuyjzs12KFTsAyToTV3nahEEZG4n69AvscOqtisDNr7tj+JotHOdRAaZnNlq1WpGbQ6zYKveWid0EHd5VqAGzeQfdRYeH21aPgP0YNCM85+wSUQk8hvKfgoob3mGHQZ2JpuJ4q7TwcKq6MG7HptqNQC1yNxXmOofrawS4VI8nGLO10lvFSDjKRymZ3Zd6DcuiZDUIl0I3pAiRdCHQmVe3Kj8WA0uEmqRQcRAdhzed21XYQiPqC7yw09CWI70jTfe1br2p485M87lmg3XcZR6+48qmyrHa4ezDtQM8NkmYlFgIwfI+zg5afrNqI17EaN2CmFSCbI7vJY2qOp15Vne5rG9Co0lQpzW6L7tKHQ+UjGO3Wp0hgYX3PQ7rvUBQS2S+icd8uCBKAoGCaTmHKlWKvP1xz3OBojZqQtF4DNzptib5MWVIGEdaMmgJuA6nv92P6s5vnS7MN/TNi2xgj1llbAAy0CxVpW/qS7c8aSgEgSDTLLljTY1cg2xoVYPLkq8/gdhvbrgxc0xXd4GWvdaRSpfyRCxJ2Gpe511pChCiETMowIy8i9nMzx1j9RtxJsxqgYpoXehnU1QC4srVoYgv3XPlUk9wlflPqOeEy2t0O6tImiozCWHIPIvleIBabB8ua50oEuFYGz3cLVbharVarepEIKszg0C0pLJfrYnUyJIfJe4YNWcxK4BibsTtiNWq3C1Wq3C1W4W/SVzSBYR8mDkKeDdRZYZzuDbnSMWJFuaNy6WigK3jKk18UOpSsoQGxLRbARTH/4GwcJ8YHnjhK2tT0dqxAtr+GSUsUoDEkJNSRjfCmLfRgjUxCYjFkqXosreRKLOTvhJTl2grYL5TM6bv0m9X4X9F6vwbcDecwAwuxvcpbTasUZWo81Om0AL1fCRpesnJiiWpATzRnA+MEI84TzpWZU9Qk96gt68L1tDI1p2i8gB0OU7u1TxhssOamXXpV1DZOaXudEqY58yYwbOYiJ/n4BijeYAWOyxS+yj2dFCDYypSV3YJzhFXq9LdGhZWMF3e4q9X9F+F6v+kKESkxgUaKsdliHBLhBLE6P+BnlM5TEXh54vIttSHZ2dB/adZpyHa9NeCCVtGPSkXyL7OAfFLKq3eEcZZ1MinMkwZmuMGyuEMtj1EvXU+60uxEsc2UgPIadA+tUdv6p4XKGwgEBcIb7/gHqKEUBMwxyogpQgGgGHBdOlHF2rc2O+VYkCCXySZj9vSWDzclsboP1FdLK9YtI5w9SpHB50DgbrY75VkNX0AzdtXFaakMDIaBkcQDoPn5p7eVGiK+/HZ0EQSvYqIlQ3A22CAnQmjwOYr6RoMjrj+coiBi4E9cO4VgiXTgt3UPT9QZ5Ljcp5im7egjFnzcB2d9MRdxLZQ9F6rmooPNBFBA0Ag4tmFzMojrh1pFeTYS0Tgr4av8AwMIiSNXNKthI+0V48UBJ7/p7FML9ga8MRI9qifkehYL1fa2Zgp6RVx9GCFqP2cFsMD1Du9KEIJEhN/QhAlpeYEqwmI0mBuxwgsg8WXlUjbKS1QXk/TngoagH3LOsDFTs422JuZMWWIp5O3cC+PQv+Zg0SJhzpe/At7gUAEEBSfOfsEdF3KOoESLh26CPoG6eRtYvl3oAAokRsnCJbUJB1pdrqxp4537aRUJQ5Vugj0iohzDmF8FSBbKdBPEfpqvkvwD+7Z06XFLC/JoMA6qgGkgTAErw0IT34p+H9BKPkvYeGU+40IOIuRB7v4Av4NASzNQqT05rIbjCcqbfbMlGwGYkTqQmEJEIMyjBHjK8mZoJXIaBFKNc3wOli5GvBQHSmO0zTqBNgXJdwnDktDcJFWjiOi3MNag1T2f0oag29f2I0wSzkk/vt2T4ckyf0tfmn4ASq5FIc1OEbQaaGRfFszt8B88qFmgVzIubHCK1bpNxVi+1qWcaBgWCoSnKcP7r1EDYAwRIomMNTKb8BSW0oRpccoBelPC5ipHUZ8VkfMQPahaUdYwxGKxJLdsRapohZoqG0g9XGBgWjLv0ANKxTdARhdnXk1zyiizWiMjypr7YhWuwIiwNLks5H9kFc97+y0Qk6ZisxmXsOdqE1/Zf04Dx/wAxa0XuZm4UDm8yUSI5ifpS4CpODldBx1bZMpabAxWpsQXJ2bVBghOYxNjw0SsF6Nt41Ka+wX3MKPElpC5gr1aReCzI1kX5MlRVFCIPjTBPhKlOEzZOZ89Kx3KbwYPb2/AmwQ0kCJGxFPOVHQ2DFNcSdQrxYu+1LSLcTa3J6BpIUMBCwl2LAGR39BCeAViYdCw9N6SWQJvLBtk7Q5UTYUiMia0wrpWC1yHQKu9UGQ6L2UAACAsBTsRf5apkFGvfB2pqSoRyaXB9NxHE6mGjzt+kFBx0TfB6OBvyaRKoyqyrWAJXM7Pm+3B5S0DaCKGmMCke49F+bRsGEMRjtJOahvSQQyRXawUzqRB7sFh0nnhSRnmJIMLo3dFCeWQmJIio6SybkpPNYLcPJJ/OxMh0gSETSp7GOJLFTUy1OTU2Od7w0b9ZaeiSbfuwPitxMvKpKy7T7SUKIjCXEqWhsqvhbjluhz/Rzo7WhkargGa06qQJ5CweR3Vc6xXLKOGUf3/eEKS+e1Xs4/KoNQiPNkPBoykTheTDmpCcqPSlQs8l0TvRXWhYZolsZml5qSgO6BHoR7KbQVgcCa60ZAaWc7VhHQeZQWggYAYH/gsnWdVkmSN6KtliEZEb6mTQHI7Fhkn7eePCCmw3mv7JXLC97/PDAYmBhmFa0K0D4uydrOVQCHbO+I6IyJqP6M2MKVjibkXc9FRugCsIw3dWbXMnCllvUkZruv8ANAtnZJmfBpSzQqU61jyRe00hMh0iEI1H3pEsglOoCO4/nCUDGkJDLp6AwAYN4rPLJMymrHGcRD5KTEzwVA6sBfPHhe6U7geZrYb7DgYtmzo5NFVCQ1ncrLAJPmENx1/RbmLb0ZQbqDrTAtVJJelRXMzP5fjvSgK4FKy8GOLFnct7RUacIXlE3ZOqvKqaAXGsrD5kuia8M8Pz5gu8IBfDzo0duOillnimO70QBPfau8aqkO7VzYS6gu9WXrSwXqNbDcy+3ox3OyyfjtS5CTzEj4qMEKNmG3SCfoiNoFsc7ieUUwQYNt6BaADpV2PXiijK9uf96VE+fQdVskjs1CdORvgLuNqQiBAQYuH0P/Dc/wDU2uDkKdKmb4zweZIpjsDFdigGsGJHfFescqhVMzkBziw9qd8xOALiZo1bbZ8MUSzQvYKkAkZ7R8+gqZcisXwc29NaShXAQBzJdX6Gi8T8AJV6U2DfbELdIB0qGth1XF7e9TTpSyqt+IJcEhHOiMOIamnSjZCmW4+P3YOSQg7IsNpiDwsekSSaMYthtrlV1M4kMmG0T1/M3IRRMbc2Rjoa0BZrO2QImNppmdWHSZ9xWcPrTNZvek0y0rs3JXccg51gH2ME6uru3q64kn2Bd54UUs8WAnFwkyJYG9WwIftYP0RV4ZoHy/HphTbvTDxPakaZoOT1EnWhvijghI9n9Ct7tcvE3xjqcJaI72u/zpUidT6WNhxDFa0huWD4KwqeLDklNUUhSDcW9DAJIywxXcAzUpVJqI8d59gMqbP4BiUFSIUeVYxwlouAxIuMJaHJrNhARexHdowkH/VCeaSJrSIPMhS8g1u+9RLSRXhpjWcg5JSTMQ1GAcEhPOpNetJ86QdnnSlQ8szVXI1cAp6rAjEL9DA2OdHHbIG0pn3dAVKBAy63PEemHCX0K5wxdzbeEPTAdX6FcMMjWgHcJ0nclHkLvtSgK1ILn6kpDEJKQUGlD++9OJAM4GSaZgTpnEL7eBgN/wAEPIqZXpLqhZYb3wjKj+CVJOUvJkqR2oN/aL9MmxW4SW+8d7+iWK2exM93gamSC9Xg6Eu1JGIZIQaOXk55AmUI87Lsbuw031yDLu+9AAAAgPVD5HYG571YICLqYHNX6EYmSHKwI53dan8sZ5r/ADzUUM38KmGA6j/Eq/UO9COAES1OJWHkza/MRG9s2jVnQsmD6L5S+tBxHyVkmSa0WAAC6rB62gbbFYOWZkbJiOzem5esWBgD9h802sh98mlpNgV5r2UkBBIIIOdDyzD4jaGjEDADY4DKCWLZcey3Nox2z13Hx7+uAjHfMf8AfFKhBc0vHZfoOYlVoi9qfMgzmt1qWS7s7EH9qaOh+FQcrDln4v0p0BhMRGRqASDBox0AnSpi6cV8A6su/QA01CQLMhe555r6g5eFZZl5OjlWc6xwZDAc5KHJMSK9SgEkc/mCiS9c6iJZaB8bzKrHYDBG3CGccEEJHZxujTFzgzoJOTqSq3VfNYKrE6ub64CFy6G3yUoaoRMmoi4ZG18v0CJGPanAy4ke9805HVq34EERJHKpULjGmp0ocJQLnQTlB66AhrSQo5cUBpgNzwG4WdocmgwOKbmeSY6l9fUFiKAiaDJs9EpQ3OPmWHdUgB27xSEE+xcUM1BfHbRCaSzWRSVhvBtwYSdCwErWOKgcDDq4u7sUZUwbE3fj0Wq3E4HN2X+OEwsvLYXwP0BpCOuwvD+/wR+PD8Z6rJ90qXZCPOt2ljeKKVhYkJE6NQgYOPEARJGyNAzWQtZLJGCcNG2lXFfsAHk16i2H4mAVsFX+AvsbYOYe7yJpAhgHzG9APJIPXKuZ3HBJGekz+gOI3Hun9q2ICnANWp4z6hnQ1966UJUI0B/XgSOFU3ubcmy6UTDTIOXF42j5RZE0oA6gfX9hcYnDobwtmtsF8lvhyoywpAyJqfgfJJfZbQLtEvPAbW8wNnVadqyALtTFtyJ+nOnGshRcrOnXmzuaNBpZiZrRKmpqeE8BtiPNaCP3n+gEw5KfKvqNadx19PXjFy5GbyKvg1M/XLpSqqsrnUJL9h016UAYsZD/AI3oj30YBglBVwS5Oo4LZto5BiosSJmUkMPFqEJcDiI4lR0NN0+M3X0mmMQhWFmGb5dRpd7svc7C0dFDN+RENk4sBe1FGalf0SUdYoNyWtc89xTHGGadXLbgSjgwjojSjT5zTZqyMvP2aQa2FZUfgOCYDRqS0GNj/jf1GA+k0mLL9Ac8f+j+FKXo3ml2HqGq0qQFRqYEVjkZ0vUMUms9TeyP7VqRybHI4AgCiESyUsIrW36fzhNKBnDBQBDCYXooROYjndPFBEvn84UttbSsCwo4JzinT0o0egbfOrQoiMJmUGHCBZQ0vwZvjLeecN6IDjU+6UiDH30FFox/nExQJ/wanQotb5gBXjeOB09Lu5tU3urAOcYVnRY3MmrpGpmVZwbn7O1JSLJz3NadDhEqMYsdF1NvS5XVPNOZVLsP7+gR4YtyQ+SlAmIzRRsEE7em5kxdXeehUyiDoH9rALAEtWUYoWzm5/caJCAgCwcZUk5hpwkEI3mlU3WMTnSXj4owhnKJ2ZybGIaRh1IKBmQz+Yqit1GUBFhuuJcKLcOQlzUz/wC1DOZmdyKCX7hM6KYXtupicGGVh6CzmjzCcCKLoF7UbMTOtNgJqjqfZUdZRC3Vq/8A1Gb4zm4f4B0CiMyz7ppyEGoOi9XcVLRe2ZSIx8txqd5INR8Ohk8qUX+TitquQRcMBrQ8riWo/wCx6FAVwreRmpULxuQHvP6BBhIQ5E+Fw34Xg4jzPuuhXMUt3/KcsDKrK1LTCwK3TVrHVGa6nBgJbFSp0mHepI5L0Jno2D0pauW7JzVZ6lCmzFD7pcegVA9zhYKuG6pU4jvHFavxWwIHMT2rMnkdJQGmcDw/2h7JBamqYUdz5BT1adaIneCQlQ2ciyuQt6Ai5bZLOd6LydnSE3aahSgyW09JpERUyq3Xh/tgJnzNOTtKwwpITOTOc6tKUwTMtTW1pvof2PR96Q4TEQ+aez9AIAlR1D8gcN/zfRfiOLUWABugr58UXwqIDjYDzacqFIaAICowhqtSwj1bFO3U0MPWgiII5JUzyMwqKETglxqTmPhT6FmtEkp0MU/ymUr1j838UN8+nABMaCjEY4TJO6hTVqxsZgLvFulPcClnBjFqX2ISqOMpcIpol20pjrwe6F2D4oRy/FpNZUaL/wAKxI0by/Homc3AeqfE8EHQv0B5F+gCGEiOZUz0knc+FSm3M9SPjiuUdst8UsIrhicHvwhqgThU+K3fxza47v8AlWKXZHUvx6FXDIrQmGkSxcyE7RQahmgEZaeVGH6RBACibTGlOBHiZg3zcVajF7KmW6FJi/esDzVA78XSww0W4ptqHjjcyx4LUDxC6pv6ITbuuQf7U1dkNS+VDGCAyCwfoLd7AJ7i61OjcdeJ7eeMZrwPJ/2O9dan5mHRY/3rRKYJFMixGPxwpdCHS9TsmGbIPk8+kNwEBjf/AOhq3fIwLseDNpgTjdaXMB2NQ1FxC/1ux0iNqx6OJYaBhzw5YV5FspBFDG33jUdiZDvsVftZzfiSmY0zlw+jF8T6bIbHqbvuUuDBTCEL9CrTGgmjKdhRTANA6UpsmDs1NYiIlpvROw6jRKmtY9Qx8e3CEZL5cZqampqanhNNyGpkwj7nJ6UXULLcY4EVXJn/AJUdEbhdar4MKdf5+jE1OxTnwI7zkO8l7mdFsMSkQkR0ii5GioGygYu2gc8KHzEwMVI6I6JhQgdcASSljHCh+owIJhWOQQiUuFKS6nAXMcno7gCrANXC08YOhf8AlQWt1B/w81NTU0ysCp0CsdMrq1ifqHRs7L+hAYItuy+JFMyRCJCNXMl+xufJ0qOEqHvuD/etJhAfRg+JohJMKh1MO3/fyQsWMPMqRpEgEhQC4xPWrihZP+y8UGdEEFzZvWp4gcVD1/HfShejA4A0ChOIhgLYjyOJ10qdxcFeW/UeztQpnbVWJQcS07VPWSyLcVFtOgUtzQOrWYeADhMaSF9d+1RHWuurwiBgI6v0qapCK64eIqKioqaV2PLP+daQAStgM6AcF+s4k5H6G+RDyxJ7WFolTFjvGT39+M2Uv/b+9OEss9RFq1Q9YtuIQc21D8l5DjMz7UiKJCcbQc3HRrr0LhokARN0pQXwQGJg83jjCuHKv2GmoQcmAY5CSdas2c1AMudIKY44CR0s8cBYQwrXnuW8EY7CJ8fDu8TQTzcma4vxwPAQrWhqLpLQhwABt6JtzZc83v7U8pO8Whncdmk/ojyomAuhZ2CgtcoVU96M+uPAS5BE1KmUuA6mT2qZrgBzs+xUd5u1/WfD7lRahPaf7TkIZHn6MtfA1ahwTBcEwHKUcvScFYNkSz1CiOULGA0ByV70FMYo0iC5cBwMXtTi7h+5/PCZOgRh8JgddaEuAgOEaG54PpUdMhzW9p4Wq1GW3WN32aWVVlprsBeXCYdZehp+iAgMgSI4jQ0CSM2YJ1UrlUHEikycn7rxg9bqR/j4qcGBn3PagQcEipAcRiu/pgPN2qHWw7D+19zf0WuWBBpDS7BlRHUqUzDjA+B6R1oPnJO+xMR58IqGq9Tk3XeppwI1IlyYedAK8mzOOSiE2IO1up+GLG3zvibu1WTznYyONjuSqGUNLll49/RISJ4M3Nq4AI+YMWS2G4oZqgIAYAfor2xqF4fMEm4M+GIoIfA1NWTuXx+au5Eh0amoPzd6mpqampoQtfarKfQK+5vU8JqaYbpmFnmVMvXQrBpAxVBthxHVwPSKAsFlbD1Xqat5BGMDCe8NL6zp26x7COapsWeddSBvPlR/QGMcD/o78+E1qZEczWMUAuhm0BcBAaFNoZ7z+U5QzUnwVFASEM848L9spIhAokSrixvATRNgSIyJ+jM050Cz32BuOplTIXLmjMqTEfUdGsw0hzi3C4srnnF6kHQfj49IySMlKHcn7V9loV9zf1y/NhZ6VJL15RNQMiMI1CMeXL5eWohWqI7gk2SR0yKnPG2Hyv660ATJEzLC7APNZCWLq68CVIarFTgrs6tObOEkAua8vepEdtk/3rwBZuCJuWA3UoHdUd4oi7B1aQaqRzYhHcPSoeJKhX83wafAK5LLD1EjYGX6NcRWTFxNBGE5VcWMiQjsnwyZU8uqW6tFEgKJEzK/5zDUdza95+a5iE+9/QkiU/5wwTUq3IF3G9FJezIfxr6m9efwFY107+1Dw5RULF9A+aza5wrJE5/4pyC5zS+B9H+0zJdgfQtjIwKTFPyrqp/2lISld3gq4wNVOQGLQBXySobDDkqR1u9jLaIjZUwZ1tywW4jSFCLqi+sg8mj4Awmye56hQlBCDIjn+jNjPW2lzT/gw6i1e48CxGsUC38+jt7VAzBHcD81P/1o/wAoToIehm6OITFT4iIJx4LpEQrEnSnpb1RoUlYKT0KiV9g3OoCoFQ/+Cu8VHI2Y98tR32DximYXmNIN07Eo0teYaDMju+10ApBkpeZ5qRTgPAusDPimasgC7REvJvxR72RcvWPIbEQJi0xNH5sAHvrMgQH5xLCImOW9Ldd0mnRXGbPKlglsUFxrIRyXfK29FgpmLBzd6BvRCBiudk9g4CdNr8BCfNbNpQRE7lWjU6kwPK+v6PY6tbB5tuT0codFQ+ELImTSYogArkYVB/kBf7U0tA8SNE5jRygzkdY1znwNIB3VvmaK8X9LGEvEUu6JgzzrJqLkZM9j8Ni5UIcuDZIrGVDzBOGCLwPRv4mmcIkjo1gLujQH5qROfkpeHe0yRwP39ispielNbRzxnDCZQmEx/dBdmmRlYknchR5R4BbyINFDSUSJs8A5sI4lVYckbktjdP0gSKtFAD20ueDqOJsyAsiODW+AeRozsR7+gUbVh761jQ5isCAN0PmPx+A8BJRYOxUYvXaseykHLhcWVF5mkFrB9q8Aq8dojcfkVyYUcWSUYGBJA2KTH7EwFRVg1PfaUsjKpOsA4RLsObPoaUmiILUT3I9P0k6r8w4pqQRP8qJ6Dyfiva+/rn5hI3e0X8fivCH690n54JIjQhGjFSSylmgnuugQBEhHOgsMTk704lqT5+aZL8CJuAg5o7FTlJoQ8VNask/Sa2ltYidmY5oVq4FueVCisl5lC+InRyPt+k/9BkUkW47jVnR9z1ohBFaI/wCV4CvgJ7/i8F4QbVu4vniNgZ5qZTB3M9pSVC2LtXGjQ6v4aVOjN5ozH5LQ8z0/xRmKhm+OiJCZ1Kiimg3Svd7q+FI++T2/SeVofTlUz2vNQM1BwmpqamprmMT73q50ox1RPz+JfyqmtkPdvwmhD3tJNQIOLD8LU0KYQRWkqRlb2oyvSh7Cn43T5ZqNlaueHSo8GU9AKNsCVWAKTJ2bK/yvgKgakd1mU2Un6TAyenCHvFRQRJNRqGAWUXX8oAQRwT1T6CPcqV5MDoMfL+JzqKSI+M4jmCHwULAZkCHG1OHq1kblfrNEAbrHYmkqsEwI0wtbTIsNmLmlqjqPFjyPyoNkoReqmpMREQXzgdKFJYxZ0sW2Os0yGUjTKut9DNoq2nkCL6ur+khGOWTIFcpIdlqQjkjk9cN99Y4ShwzVxqE6ng9aGQRkcz0dFnzVjSl+MRAbtRUYT5/wKiSwXlCkeWvTlZW0VNtjyuAyi4QphrWF2jPfjYyynackLne+OMy46Omr0PcqKANT5qAta3PYj5om7imPKSXYodOc42oS65/pZj7g3nBs1IhrmKd026inHcJND5dA68E725cqMFfMKBnaBvw16X7VJ8LqwkAfWv4zA6P3oD/E6vmhJcLhM4l4VM8MEvEu44NScDwAIwSJMDlVwARj6SwNiDb9WBAFEI50irdQZugeHWkbu0aBrB3CN+GDJNZdtFn3oMjmFJEks5R5H8Zg97U3+pD+aug+xV/ww5SeSlZg7lh5/WiOMJvrqwd00SaxOiZIdmkGg5HtM80ImmNowLZYtKVNSvJBOkeJ/EOYh8FTaUO/+a2gPYp8UBIi6ZKA+aE9BpgyXwo1g5sxJH9cBAFEI50yoymzTL6pVfCDaLd79n8UEtQ1LoSd/wCNT2bjtDwANET0SfBK6rBMtv6B6/rthGTxisP04VbUgeqyH02/FFrEdv8Atb2TwfNfVJl88DNgXvK00Mh9giO89/125yXgvO3ygNJUkFz9FUEST8M21O5UXlSGKEQkIIwdGkqbOh5KHcqTtg4uAB4AobRQQi7gdAfrpETzOA+9bYYMQPkq2alpviV53dfw7/IfNQQS/RzThNxl2zGwU8lPZYAi7zXqY2oAAAFgP16+mqMIWechQl1wCQhUHMXtjW37odxfUwENVip8LqYFTp0yFgpicsQEpi8+BN5DOyD+wT9uSC7aOAwcGNDqUOAWaDlY0CAGaq6geKIJXP5mpF0fQto16DJ7UaXXEPzot2j4poYr/wDrEU71fykjG8pbVDxFhbOTIYrQFFGMCk84/YFRUPEGyI4lKYxUJ3yelL9gy+VUYYbKdNRdhdfYau3f1YU/f/asN6pe9YZ+f3xS5Ba/CTUem5zXl96Abhky9a1FVrZHVl3lgZH6dNTwmpqamp4zU1NTwmpqampqeE1NTU1NTU1NTU1NTwmpqampqeM1NTU1P/0ATGMyWNbtdrUbTFry/bNFX6vKsE9Jhmk02qtinjRcx0uv0/UTSC/LwomYcOVf8tX/AJav/LVAWrZE0TEZj86EfpxCiUSsrMqIegEBJAy3MkTh9Vp6YT9AYEtmbADSLYtCiJImlGWfyyFBc2ITt+ohywXNdCMCSQzjUV33RMjqSUUCSAh2D/wAwsa+K+609MV1FFFCm0xAjFgjdKYsQk1Vicpamo6EQQpQ0AA2P02amp9LQZqeBtckhQtsT0Kl2e6SttvKKtARamiNjIAN1wqf6c6Y7fu2mnyvaTzoxM4e1DCgmWLZldCt/Wk9p8UfaMxXPYHU9Gqa+60qCfkEwkg5SPavpHzX0r5qADgCLZMNY+ujPScmcr2zSAOOSAgpfZO9Amlg5OkrWProz0xmcr2zS2pCaJGEvemoPjMXMVOsUUBNvig1buuHE6MYOzepqaFjEnk3WxQkTondjzRpQ0vuB5phNRfigC9W+VBvuXQTGCCYZlTU/ozQALobs5mkmDqsRE0287Yy6Li5E5pTtDaijzMc4iNorBuO4/sCPWhqAEothG+/IXNEdyQEQkbN9Kg+cJJIpKAIw3ghjXhDgSQ3cgurIO+EKXSlBbwDlNsLVHvRUiBwQsjrUpuDY6iZjgmdRVIKzl9AJ09Gr6rSiKRJ0NbpmBKylFGDISwttZGMUnS3enFk9BR01jAYUJTIhpWgyxZCBe5JfOeZxLwVefEmYRIVT8hZIBhDRbDUc4KgZNjJYLDc4jK96nIAsM2MS3PppgsQYEwiZI1fH+dw3Y6g9MFpmwEiYJS9o0DFYA3VA50fsUtBZAZuqu+KLBGmKAqQcgAmDUTbxLzkldqQPsJQ2pkJuZTmM1faY7Ifj9HaBHbZcyyDkTQgRUyqyrTJsG8CsTy15fB+ai1WiyMuW4HdXYxVJO9ftdPAPObSjCaTif14DwIxXUQ6Pe4OhJtQm+6+jVHbGoRitatpLHBtAyHDFvYApwcXvE+kH4WBfrGm7swBdAy3deDyQAGoi9YnrwYCXDVaBjeVeTrwN6wSxgyWZAkYwxLyflFETpLd0WkIxKSPFINm4pNlpVeqwgMIHs/QHz3wQHu7ZtGl7AUmsIu9Wv0tr+CJbc7h6WghUe4CH3eE68GhlBmenoJJJt1IsJFmLYwr7XTwx/gVRWqaAAUKlwFeTIb34Qc6c+42jfA5Ro/hQF6+x1+lrso5ahisQbiCblKaMnt8OTqrnnifhKXuunJzId6goksygEk5lxHR1n9ASFDXIGHqD04LhuMYSYD9LUuACCdWHzwMDM/0IHkOvBn8dmMJ7CvTgP8AmxWGndeIX3pWwUTfZR3ExEzG5X0unhj/AAKorUYFKExyDeW+opnUvmBydBqJCOjSEAA6mTqJZMxqAxC+lHF9zURz/AgL99jr9JXZHUCqh2KbWVAENFaMFWkwTJKWb95mbvMRsRTEivx3Bvwbi7xwAdVAZAA8L2/QAFExLAyeS6lRtlMJkmGESRnabVbr4RpFoZgEsE+VoRI+E/FZjFcFiMLyssWToBSiiSRIGA5xKqYusDwRYI6RCETSKVS9AW/NyTJzN5BMCiEImCNCxZBFudIdUb6FKoKtFXqg80Po40nOTvGXYLenvacLa9bGHQAyp9d8GqVRbGCJ4L4PmRS8ykxtrVM/LXuTEbzVgGywxgCy34anDIMdMTtEZsxlUcvRBgZa5EbTjRKNsBBCkm8THpwI1ZpoYFQJEYUZTYpF8Zed7yXQ4PscL2owGp5F2p6+1OYCYKEoXMUpxdZEhABgWy2thwfrg9JAWYRb2vWDWds8xE4cHBypsvc6aWnODGWvwJwFfVSIrTKkTUzLgeILArds22oEApECAU2mTpwgVYCAM20ksDN4xqb/AGEfxT4p6XBiDNZnUvIjKewQbOjs3o8NcibCMSEyuUUoQoBKrkUwnBFIzdQ8wy/QWcVRAcywJ1DtTm5akDqH2rOxfzhe2kYAQ2Pu7xsQbehgpBAHERslBupKFnymOQhTJ6Zkd40UMujc9E9iVedcQJdVxXdvR7APAoQw5WfR898om7uL7L5eh756AyhRBiHOw4vfGBDkS4yUMQkCRHJq8vlgA2NuDwUp5UkWunoTzzycxTIKWTmxcfngUS3UUVwM4gubLj88HajqAAkzuUgbKWUAzsKba5EQQSloAFjQQpsRRfRtV6TxAlDgNiePktugf/LpqeE1NTU1PGampqeE1NTU1NTwmpqampqampqampqeE1NTU1NTxmpqamp/+Y5cTi1lWfpeL6GjjlWdPA/DlR/+F//EADQRAAIBAgUDAwMCAwkAAAAAAAECAAMRBBASITEgUFETIkEyYYEUIwUzcTBCQ3CQkaGx8P/aAAgBAgEBPwD/ACIZgvMNdZ66wVVPz3Im3Mev8LC3mapqmoxarLxKeIDbN28kKLmVKhf+kLeOuhVJ9rduxBO0Y/EAvEoFt5UolN+hRc2gpKOTv2zmWmJNgMqCA7mVMQb2SNUZhYnqo1ip0njtuKO4GQchSvnMqV56WUrEN1B7ZXN3PQs0+olhyMqFtdj8xlKmxi2EI9SntyJR+gdoqVTiKgppxGYKLmeuPEBuLiYlbPfopJTYe7mLTSmdV5UYMxIgNjcR1FZNY5lGoqbMI+J2soiVBTpqW7Pja9v21/MwA9xMqONdz8QlDYNteU2CXVjxMQ6sRb+wpVDTP2lalf3pliNqKiYOv/ht+Oy1qopIWhJY3MwTWqW8yuLMZVN2vHcubnrAvGAHGWFJsfEYgkkTGbBVgJBuJRqeogbsmOqan0D4ypuUYMPiVFFVQywi2xnpNp1ddC2qx+Z+mbzAlNPqN41Zm9qCwi0zrCmYxtVS3jLBVNL6T89jZgoJMJLMWOdDEGlt8SnWp1eOZXY3t06bmw5iFPpcT9Oh3Bn6YeZToKSb/EZkoiy8yhyajR21MW85KxUgiK2oAjsWMbTSP3g6MM+ioDK67gxuYpAIvKiaDbK55gUVhf5no1F4lqw8xg67n5igsbCYlxSp+mOT0YRtVIfbsWPPtUdVJjWpb8xhkjCouhvxGUqbHIMVNxBiXHMOJeM5c3Mw9LSNR5mMRg+o8HowJ9pHYsfyv56ACTYSlgid6kWiVX2jaVaRvqEItkrrUGl/949Bl43zWk7cCU6ATc7mUaaMNzcyvQt7W3ExGGNLccZ4DluxY8bqf650cM1XfgTD4UDZB+YlBV+5hlWnY3XiMityJ+nSPi0pNotxKeJpvsDGA5IvPWprwIlQsNRFhKmM300heYWu5PvFiJcOLGVqOj7iYmkKT2HGWAG7dixw9oOWHwy6Q7bkylh77txNlFoX8S98mpBo1MrzMPRSoWZhfeHC0j/dgZ6T6KfuH/vmPUcMqgbn/iYoB0BJtMEulTtD9Qi8CVW9hBmMbVUt4ywI9pPYsSuqkcsJUuinxAbi46nF1ImHGl3X7/8AeVVEP1CBNheFAQLfE90AJYXyxDaRvGYsSTlhl00h2Ii+0qJoYrMC9mKeZh2utvEbnqqD06hPmaifpEpYU/U0dSpscsMOZXClbmKCBvP4hUspH4ypprYKIBbbseNp7hxKb6GDCYZ/dt8x+c2NgZTH7YOToG3MoUwTqyxCXGrLDDYmE62+wjGwvMc+pwvjLBU9y57I6B1KmOhRipmBqewHxHzPET+WMmFxaWenuImIB+qbMIy6TaIdKADkwCwsJXewtDqquSBzFwdQ87RECKFHZcVQ9Qal5EwJ+pZe6A5+oCDfmJ/LEJAmtfM9VfMY0zAxU+0xmLG5iOF3M9f7Sp+5fV8xVCiyjtApBX1j5lI3pjIhj9MOHc7mXPHUouQI2HUKSO2UP5edzG5PUmzCFidu2Yf6D0VBZj1Lzkdj2tahTiLVB5zrD3dQhqrGNzftquy8QVvIlRw3H+ln/8QAOxEAAQMCAgYHBQcEAwAAAAAAAQACAwQRITEFBhASQVATICJRcZHBYYGx0eEUIzAyQqHwM1JwciRg8f/aAAgBAwEBPwD/AANZWQaTkujK6MosIVlbl1lZZpsfegO5bq3VuhGMFPhIxCI5YBsAumt3UG9/XlYBiERy2IJo4omydLZMkDsOo42CLyeHKxthFzsldbAJkIzcgxoNwOtJGCLhHlkAwJ2FgLt7aHA9UOunixtyhrSTYdSL8o6jkDuOucjsl/LcJrt4XCdcodh+PFSjtHk7QSbBUdDHoildWVAu+2A7r8PHvQBOS6MoiyhN29SRz2nDJF7ni1kwENAKIumno3bpyUjC7IpsON3KGkfVyOZHmBfxyTgQbHkoWrei94/bJR/r8/ktapfuWMHf8B9UxuFggHYkJ7d6zmqFpbe/4EjN4KN9uy7Zq829U93s9QtP6Nt/yox/t8/mjyTRtEa2obCMuPhxVmwsDGCwGAWscRfTB44H4qI3CjFhZNbuiw65Nk0k57JwLhNFhitWmX6WTwHxT2Ne0tcLgrSFGaSd0Ry4eHIwtWaMQ05qHZu+A+vonO3jdVMDaiJ0TuIRa6nkMcgsQgbrpG3t15b7twunat57/wAosmxhuLkXjdJC0BD0dGD/AHEn09NmsNJ0sAmGbfgUeRQxmV7Y25k280GNgibEzIC3lt0lomOuG8MHjj81V6NqKMXlGHeMlGML9XesLlODvzMK6ZwzC6c9yfKQBZNa6Q4p4LiI25lQRCGNsY4ADZLGJWFjsiLKaMxPdG7MG3ItXoelrm3/AE3P896kN3dTTFOZ6R4GYx8voozwTck4G2CY7eF9lkXGM24LpGHNfdobrskSALlaCpDUVHTu/K348PLPqadh6OscR+qx/nv5Fqoz72STuAHmfp1tK0zaSrLWZHHzTTscCw7wTXBwuNhAIsUYWoQNTWhuAUr74BaAnidTCJn5hn8+prMy0kb+8EeX/vIQtVsI5j4evUe9rGlzzYBV2sTW3ZSi57zl7gparpZLyOu4pj+BQN9jmlhu1Nla7a6Rrc0+UuwCqJpGnAWCpKxzXCSM2cFovS7Kwbj8H93f4fLbrOOzGfH0R5AFqu7sSt/19dukNMQ0fZHaf3fNaQ0pLUHemd4Dh5KSpc/AYBBQS3G67NB7m5ITOVJq9UVcIn3gL5XuqrQ1ZS4vZcd4x/nvTSeBXRvOZRjxDW4lUmrnY6WtfuDuwv7ycB+60vQU0Nvs0m+0+0Gx937LtRneaqep3jcYOC0PWurKfef+YYH2+3ZrOezEPH0R5Dq1Jad7O8fA/XZpbTExldBCd1ow9pU9VbBuJRu43KDO9WtsZO5uBxTJWvyWltI1FJHBDA7dG4Dh5eiZp2vYbiQ++xToaaupRUVlonniOI77cVTUVO6KaZ8h3WZWwvfLO9rrQT3QVLmRs3yQCDgCBnn78VrNOJZWDexAxF72x8lFjE8eB+I9U7MqBn3gIWr8JjpA4/qJPp6bNZZLzMZ3D4n6ci0PN0VYwnjh5/XZpun6Oqe05Ox8/rdEbpsetGbOBWlpBNBTSD+23lhsoqmqjJEL7DjfL33uPXuUlQN926AQbcLYgZ2GXHzUdSWl5fjvCx4cQcPLyREJxuR7gfUIujZG4MNybcOA9/hso4jI/dbmcPNRRiJjY25AW2aZm6WseRkMPL68ia4tNxwVLOKiFso4hayU29G2ccMD4H6/FVbLPv3puI60LjUU4ZfFpuLkDPPPwH7oQxsxkd7hj++Xx8FVaRFujjFgOH8zPt8kx4e3eGytODVSucH2bknkFxIWrlN0lQ1xybj8tlVOKeF0p4BPcXEk5nkQWrlXcOpneI9VVQCohdE7iFWxFoIdmCmZbWC7gFMfvSNkcjm4BVUpADPPZRyWduHiiq04gJjeiZbifgmN3nALVun6OAyn9R/YfW+zWOss1tM3jifRHkdNO6nkbKzMKmqGVMQlZkVrDT7lS+36hf8AnvUe1uBCk/qnY126bomOYWcpKNwxZisWHuKY4PaHBSND5S52QTnFxuVSRF7sMzgFH0VDA1j3AAC2Kl1gpI8G3d4D52VTO+oldK/M8l0LpL7JJ0ch7Dv2Pf8ANazR/wBOQe0fBEbryNpiIItiFILSlBpOQQjeeC6F/cmCVqLA8doJkYjFmqSIuwGSFN7VTvNO4OjzClmfM7ekdcq6BR5ICpK58tMKd+O6bg+zHBTi0p2NLQe2m1UbRYXWGaurq6urp53WkplU9zgDkj1TyUKqFpBtsE3FoPWeLtKa0A3RQ5SFVjtjqRm7B1nZHYMQFbZZWR5M+Jr80+BzcRjtgN2dcQPPBNFmgFXV1dXRPJ7p0bXZo03cVFGWAg/gHl10PwDy8I9UbDzUI8xB2Ybbo/8AYLK34NttuVBH8AI7b8qCKCPUBRQRWWwbAr8msgigir7Cgih1Aih1L8kvtvtvsuhsB2X2X2X/AMB//9k=;" parent="1" vertex="1">
          <mxGeometry x="645.05" y="477.53" width="69.91" height="52.47" as="geometry" />
        </mxCell>
        <mxCell id="-FWxgoRZEaUpRLydqsQy-2" value="" style="endArrow=classic;html=1;rounded=0;" parent="1" edge="1">
          <mxGeometry width="50" height="50" relative="1" as="geometry">
            <mxPoint x="500" y="590" as="sourcePoint" />
            <mxPoint x="640" y="510" as="targetPoint" />
          </mxGeometry>
        </mxCell>
        <mxCell id="-FWxgoRZEaUpRLydqsQy-3" value="" style="endArrow=none;dashed=1;html=1;dashPattern=1 3;strokeWidth=2;rounded=0;exitX=2.267;exitY=0.401;exitDx=0;exitDy=0;exitPerimeter=0;" parent="1" edge="1">
          <mxGeometry width="50" height="50" relative="1" as="geometry">
            <mxPoint x="388.4525000000001" y="623.3500000000001" as="sourcePoint" />
            <mxPoint x="444" y="623" as="targetPoint" />
          </mxGeometry>
        </mxCell>
        <mxCell id="-FWxgoRZEaUpRLydqsQy-4" value="" style="shape=image;verticalLabelPosition=bottom;labelBackgroundColor=default;verticalAlign=top;aspect=fixed;imageAspect=0;image=data:image/jpeg,/9j/4QC8RXhpZgAASUkqAAgAAAAGABIBAwABAAAAAQAAABoBBQABAAAAVgAAABsBBQABAAAAXgAAACgBAwABAAAAAgAAABMCAwABAAAAAQAAAGmHBAABAAAAZgAAAAAAAABIAAAAAQAAAEgAAAABAAAABgAAkAcABAAAADAyMTABkQcABAAAAAECAwAAoAcABAAAADAxMDABoAMAAQAAAP//AAACoAQAAQAAAH4CAAADoAQAAQAAAGcBAAAAAAAA/9sAQwAGBgYGBwYHCAgHCgsKCwoPDgwMDg8WEBEQERAWIhUZFRUZFSIeJB4cHiQeNiomJio2PjQyND5MRERMX1pffHyn/9sAQwEGBgYGBwYHCAgHCgsKCwoPDgwMDg8WEBEQERAWIhUZFRUZFSIeJB4cHiQeNiomJio2PjQyND5MRERMX1pffHyn/8AAEQgBZwJ+AwEiAAIRAQMRAf/EAB0AAQACAgMBAQAAAAAAAAAAAAAGBwQFAQMIAgn/xABREAACAgECAwQFBA4HBQYHAAAAAQIDBAURBhIhEzFBUQcUImFxFjJUkhUXIzZCUnKBkZOhscHhVVZzlLLR0iUzYoLiCCRDdLPwGDQ3Y2SDwv/EABsBAQACAwEBAAAAAAAAAAAAAAAEBQIDBgEH/8QAOREBAAIBAgMGAwYEBgMBAAAAAAECAwQRBSExEhNBUWGRBiJxFBUWUlOBMlSh0SM0QnOxwSRDkqL/2gAMAwEAAhEDEQA/APVIAAAAAAAAAAAAAAAAAAAAAAAAAAAAAAAAAAAAAAAAAAAAAAAAAAAAAAAAAAAAAAAAAAAAAAAAAAAAAAAAAAAAAAAAAAAAAAAAAAAAAAAAAAAAAAAAAAAAAAAAAAAAAAAAAAAAAAAAAAAAAAAAAAAAAAAAAAAAAAAAAAAAAAAAAAAAAAAAAAAAAAAAAAAAAAAAAAAAAAAAAAAAAAAAAAAAAAAAAAAjXF+u2cP8Napq9dEbpYtPOq5PlUnuls2vibbTMuWbpuDlygoO/HrtcU99ueKlt+bcDPAAAAAADS6/ka1jaRlXaPg1ZedFR7GiyxVxnvJJ7ye22y3YG6B1VOx11uyKjNxXNFPdJ+KT8TtAAAAAAAAAAAAAAAAAAAAAAAAAAAAAAAAAAAAAAAAAAAAAAAAAAAAAAAAAAAAAAAAAAAAAAAAAAAAAAAAAAAAAAAAAAAAAAK99K/8A9OuJf/Kf/wBIlPDn3vaL/wCQx/8A00a7jbQ8vX+FdX0rFnVC/Ko5K5WtqCe6fVxTfh5EHwsL02YWHjYtdvCDhRTCqLl6224wSit9kuvQDnjxZOu8X8M8JPLvx8DJpvy87sZOE7oVLaNfMvwW+9GrWi4/APHXC+Pot18NM1l34+ThTtnZCNlcVKNkOdtp7vr7iTcScKcS6nHhzWsPMwcfiLTIPne03iXdrHa2t/hKDfc+8x9I4X4t1PifA1/iu/T4vT6rI4GFhc7hGdq5ZWTlPve3TYCPVaFicf8AGvFS1y3IswNIuqxMTChbOuCm4tztlyNNyb7mOAa3w9xB6T8dZWVk06dHDnV29jsnyRpsmo7vyXRe432p8K8YaVxRqOucKZOnOGpQr9ew87tFDtK1yq2Dr693ejR+iqnNyuIfSLdqOVj5rvycSm6+iPLROyFclZCH/DDmUfMDWcK8B4XE3C0OKNX1DPnrWbC7Ihl1ZE4PG9pqMaknsopLuZqlk5P/AMNnbdvZ2vJ/vOZ83/z+3f39xI1oHH/B+i6hpmDrWjQ0GqN06szLVnrOLTPeTikvZk1v7O76s6uHuFtT170DYWiY7qqycqlzrle5Rgo+tu5NuKk+se7oBs/S1HJt4Y4Rpoy7cey/XsCrtq5OM488JrdNeK7zW65wvp/A3EHBupaHdl1SzdZpwM2E752xyIZCa5pqbfVbb/En3GPCuo65p3DeNi248J6fq+Hl3OyUkpV46akobJ7ye/TfoZHGvDOfr9nDEsWyiC07XcXOu7VyXNXTvzKHKnvJ79N9l7wIVr+nx4z9I93D+o33rSdN0yGRPFrslWsi66Wyc3HZuMU+nkzG4V0Kjh70uZ2mYeVlSw1w32tVN1srFVzZEVyw5t+i23XxJRxPwpxGuJcbibhjKxIZ6xfVcrGy1PscinfmXWHVSTIjwWtev9LmtX6tmYWTk1aDGq/1NPsMeU7oyjSnLq3sm3v13Av0AAAAAAAAAAAAAAAAAAAAAAAAAAAAAAAAAAAAAAAAAAAAAAAAAAAAAAAAAAAAAAAAAAAAAAAAAAAAAAAAAAAAAAAAAAAaLiDW6dFwFl2xradkYLtL6seCct++drivDuW7NFHjZZNGjT0/ScjLs1DGyb4VwsqjyLFlCE1KUpcr6z2Wze4E6BX13H+PyesYulZeTiw0qjUr7YuuLqouc11jKSbnHs23FHMeJbVreRTbkyWOtarxqeSMdnXLTvWnzt9dt93uuvd4ASXXeH9I4gwHg6pjdvjucZuHPOHWPd1g0zI0nR9L0fCrwtNw6sbHh82uuPKt33t+bfi31I/j8XSt0i/VbNJvx8RY9d9Ft91Fcba7X7LblNKD26tS8PeaTI44yszT9Ky9Jwu1dmsRw74RupnHonLaE03FqS2akgJLrnBfDGv5uLl6rpleVbjx2r55S5Nt9/agmoy/OmSWuEKq4V1wjGEYqMYxWyil0SSXckQ6rihww63CjIy8m/Vs3Dx6fucG5Y9lie76RUIxrfV9X08TWWekWiKypw0bNlDDxfWM981SeNGFtlNiacvalB1N+zumu4CyAR3iLiPF0KjFndFTsyb+xpg7IVRcuVzblOxqMUlF9fzI1OPx3pNuFRmyrsrosw8zI524ySlgy5La94tpyXVrZ7NLoBKNU0zC1bT8nAzau0x748tkFKUW139HFpp/AwtC4b0Ph7EeLpOn1YtUpbyUE3Kb85Se7k/iyOS9IWnV6nTg2404SeRj41zlbUp1ZGSouMOz5ueSTmlKSWyZk4vGTyc+OOtIyo12ZuZh497nXy25GHz80UlLdKSreza8AJuCsdO44zaeGNK1DUtPn2+XlSoi+0qrr/CkpSm2owT5eVJ9W9iXanxDjaXTg3ZlNldeR2nNJuL7J10yvans2u6DXR7bgSAFffLbGzdPrvx6sml7aZOx8sHKuWbldh2MlLf2ouLU/JdxrLOLOII6NreXLCnCzG17HxaUnVJ2Vzyq6pVpb7c3LLbd+LAtQGj0TWPspXmKzEsxsjEyXj5FM5Rk4z5I2LaUG004zTRFdA1bUNVz9TyJ6tl1Y+LnZMVQ8LlolTRY6+l84bT35d3yy3QFjArLE48rxcDh5aioTys+jFtnFXUwsj65NKCjU5KcuXmW+y7vMz9T41ePHiVY+m2T+xOPZO2btqi94VqzdwlJS5Gn0lt12YE+BAXxNk6djaV9loZEMmOmWZGVTCNcnZZCddMY9O6Vk5+yl08zKzeLMjAow3laLfTkZOW8eqqd1MYtqHOn2nNy+13JPq5dAJoCCV8e6ZbrdemQplu8t4kp9rVzRvUeZx7NScnGLXK5Jbb+4x8r0i6Vj5WqUdl2rw8XJv8AuN9N0perNRcXGuTcHJySjzd/jsBYYIhZxNmxtqxo6BlzzHVK+zGjZTzV0qXLGUpOSjzSfdFPwZrqeKs2HEWfi3YVs8H7J1YNF8XWowsdCte635pe02m9tkBYAItxjquRpWgZGTjTlG+V2PTVKFTukpX2xr3jBJuTSlukk9zTz1PUMKrRZPVsnIjm5r55ZOLHHnXRTTZbZvBwhJb8iXVb9egFgghV3G+m42DVl5NF1UJaTDUJp8u8I2yjGFb6/Pk5bLw6GDR6QKcl1042l235c831aNFN9Nkf9y7+ftIyceVJbPrumBYYK3u40yLcnhu7Hw7IYWTiZOZmynKveunHShPfq/mSmm3Hv8DP0riPU9T4hxsZ6ddh4v2MsypRtdcp2dpOMam+RycGkpbr4ATkENxuMsG/iSWickFbzWxjKORTbLmqW7U64Scobrqt18djXYPpCxL8FZuXpeXiUWaTPUqJTdc3bRXyqWyhJ7STnHZPv3AsMEN0HW9Vz9f1nEzMGeHDHwsGyuicq5y3ulcpS5q2+9QS28GjQ6DxZqOt67kadVZ2VVObmTldKrbtacW1U9lS2tpdWnOfgmkuvcFoArC7i/Ull4k8PFyMyhx1S++pdlCSqxLVTDZya9lvdx8X4m21DjzScO/SobRsWbHGnBdvTG1RypqENqpSU5bb7vZd3duBOQQufGNcNXsw3puR6vDUI4Us3mgq+2lUrdkm+Zpb7N7dGd3DvF+Dr2Zm42PCPNj112OUL6siLjY5RScqZSSkuXqvICXArbiDiTUqKNeyMS6VdWLk4un0KFPbTnkXzr7SxRSlKXIrEoxS6tPvOrVtW1TTtN0mUNY1C2Wo58K1Y9ObyKqo1zsntjxq5t/Y8Y9ALOBVPEHFmdw1LSa55N+e78XLyp9pQqpclSgo9ryRXZwjz80m1ukn4kquytUwMvhfGvzI3yy8i6nKkq4wUmqJ3KUUvmqLhsuvc+u4EsAAAAAAAAAAAAAAAAAAAAAAAAAAAAAAAAAAAAAAAAAAAAAAABo9Z0SGqPCmszIxb8S920308jlFyg62trYzi04ya6oi8+Cb6crQoYGrZmNRg4moVzyIyqeRKWXbXZs+euUWnyvfp06FiACt7OAY2Z9tNWdk4ulvRcTT3TTOHNdCmdrnCxzjJpOM17UWpdWSGXCmmSzXluVvN6/HM7PePJzxxXhqO23zeR77d+5JwBCK+CKIacsH7M6nKqp4/qfNOp+q+rTU6+zXJtLZpLeak2u87PkZjrBnjrVc/tpaks/1v7j2qvSS3S7Pk2aXdykzAEUt4Tw3i1VUZmXRdVqORnU5Nbg7K7cmU5TS54yi4vtGtmn095iV8CaTDC1bF9Yy5LUdPlh5Nkpxc5Kc7bJW78u3aSlfJvpt3bImwA0etaFj6vViqd1tNuNd2tF1Sg5QnyuD6WRlFpxk000zF1DhXTtRwdMxMuy6xYWRXfCzeMJWSgmmp8kVFxmm1JJLdMkwAjUeGcavWrdTpy76+2tjbfjqNUqrLIwVam3KDmnslvyyS3R9U8M4FMsGUbb28XU8rPr3cetuX2qmn0+au2ey7+7qSMARCvhNU6O9Lp1jOrpV05wfLRNxrnv9x2nXKMoLf8JN+87svhHScvh7C0O13eq4sceNbU/bccfZJSbT3UkuWXmmyUgCJx4O0mNOpVRnfFZuqVZ9rUlurarY3KMd10g5Q3a97OXwniSjqNcs3LdOVqNGd2W9fLVbTbG72Hy77TlBcyk307tiVgDW4WmUYWRqd9U5uWdlLItUmmlONUKdo7JdNq13+JHsHg+WJgX6euINUsxLKLquxmsb2e233kpQpjLmTe63b695MwBC5cE4PrvbQzsyFDycXJliRdXZStw4xhW23Bz2SrXRS23RxqPBOJqWRm3ZepZ1jvxb8atfcl2FeRJTkoNQTkt4rZTckiagCLZ/CuHqHbSycvKnbZh0Y/bbwjKLx7HdG2O0UlNz2b6cvRdDq1HhT7I6U9Oyda1GddkbY5Mn2MnfG3vjJSrcY7fg8iTXgS4ARjS+F8XTM/IycfKv7K22y31aSrlXCy180pxlydpu312cturNPj+j7TqqqKbNSz7qqMeGNRCbqSqohbC7s1yVxbUnWlJy3bXiT8AR/O4frytVq1GvPy8axVQqujTKMY311zc4xnzRk0k2+sWns2dS4YwoumUb8hSq1HIzovmj1uvjOHX2fmxVnsr3LfckoAj0NDndp+i0ahmW5F2DZTdO32V21tUWt5rbu3e/Tbqd+p6Hh6nfTbkysarx8ilQi0otZMVGTfTfmSWye/izdACC18B4PqmdRlann5UsjGxaFba6lOqGHN2VdmoQjFNSe73T3febfE4doovwMizLyLrsWGRGM5RqjzO9x3lJVwit4qO0dl3N77kjAENjwTpkacChZGV2GPpNmmyqbg1dRZFRfaPl35ntvvFrqZuicOQ0rJyMmepZmbfbj0UdpkuveNVDk4xiqoQX4b3feySgCH4PB2Lh6ljZcdRzZwx8jJux8WXZdlXLK5nZs1BTabk2t5PYLgnR/UMDBnLIspxdHu0yMZSW8qLuz5nJxS9tdktmtvEmAAjei8OrTMzNzLNUzc3IyaaKp2ZLq6Qx3NwUVVCC/De/mMThjAw4aKqrb+bTpWuublHmsV0Wpqzp1Um+Z7bdUiSACBvgLCUKK6dW1KmuOnxwrIwlV92pUnOXO3BtSm5e1KLT8tjKs4LwJZ7yIZuXVRLKxcmWHDslTK3EjGNbe8HPZKteypbdCZACH53BWk5+FZiX25Lqsy8vJs2nFOU8uuyqSbS7oxsfL5bLcz9G4fhpeRl5Ms/Ky8jIrprnZeqltCjm5IxVUIJJcz8CQgCF28JPIrzKp6jfQpax9kMe3HVfPGXIvZkrYTi9pbvu8ja0aEo5On5OVqWXmXYfbdnO5VR37ZKL5lVCC9lLZbLxe5vwBpsjQ8HKzsjLvU5u7BeHOttcnZSk5S2W2+8t9n18DCxdAnTnaXZZlTto07B7DGU3vZKySUZW2NJJy5Y7LZeLJMAAAAAAAAAAAAAAAAAAAAAAAAAAAAAAAAAAAAAAAAAAAAAAAAAAAAAAAAAAAAAAAAAAAAAAAAAAAAAAAAAAAAAAAAAAAAAAAAAAAAAAAAAAAAAAAAAAAAAAAAAAAAAAAAAAAAAAAAAAAAAAAAAAAAAAAAAAAAAAAAAAAAAAAAAAAAAAAAAAAAAAAAAAAAAAAAAAAAAAAAAAAAAAAAAAAAAAAAAAAAAAAAAAAAAAAAAAAAAAAAAAAAAAAAAAAAAAAAAAAAAAAAAAAAAAAAfLaXVs8mYiN5naByDTZOu4FDce0c5LvUev7TSXcT3N/cqIxXXrJ77/AKNil1fxDwnSzMX1NZtHhXn/AMJOPR6nJG9cc7ecpoCvZcQ6k+6cI/CP+Z8x1/U0+tqfxiv4FVPxpwqLbdnLPrsk/dep2/0+6xQQOriXNi/brrkt/ejb4/EuJPZWwnW/0r9hO03xPwfUTFYzxS0+FuX9WnJoNTSN5pvHpzSUGPTkU3wU65xkn4p7neX9MlMlYtS0WiY5TE7ocxMTMTGzkAGYAAAAAAAAAADgAjura36pJ00xUrem7fdHf97M8eO+S0VrG8y1ZctMVZtadoSI5K1lxDqqlv26237uWO37jYYnFlkZbZVKa/Gh0a+KfeSbaHPWN9on0hFpxHT2nbeY9ZTo4MLEz8TNr56LVJeK7mvimZpDmJiZiYmJjrEptbVtETExMT0mHIADIAAAAAAAAAAAAAAAAAAAAAAAAAAHANJxFm5GDo2Zk0SSsrinFtbrv95UPy64i+kV/URlFZlaaHhGq12O18PZ2rbad52X0Chfl1xF9Ir+oh8uuIvpFf1EZd3PonfhniPnj95/svoFC/LriL6RX9RD5dcRfSK/qId3PofhniPnj95/svoFC/LriL6RX9RD5dcRfSK/qId3PofhniPnj95/svoFC/LriL6RX9RD5dcRfSK/qId3PofhniPnj95/svoFC/LriL6RX9RD5dcRfSK/qId3Po8/DPEfPH7z/ZfRwV1wnqXEerXO/JuisWHlBJzfkvh4limExsptVprabNOK1q2tHXszu5AB4jgAAAAAAAAAAAAAAAAAA4AItr+vxwIOihqWRJfmgn4v3+SIur1eHSYbZcttoj+rZix3y3itY3mWfqut4enQ2nLnta3jXHvfx8kQG/X8vOk43TUI+EY9I/nNBZbZbOVlk5SlJ7tt7tnWfNeLcb1Ov7dK2tjxdIrE7T+7odLoMWGIm0dq/nPg3wMDFyH0rk/g/wCBnnG5KWpaYn9pWEAANQAADupyLqJqdVkoy938SXabxDGxqvK2jLwmukX8fIhYLrhnG9dw7JE48kzTfnSZ5IufSYc8c42nwmFuJprdM5IHpGszxpRpvk3U+ib6uP8AInUZRlFSi001un5n1rhHF9NxPBF8c7Wj+KnjEuc1GmyYL9m3TwnzfYALdHAAAAAAAAcMqrKsdt91jW3NOUtu/bd7lrFWZtaqysiCWyjZJL4Jljw7bvL+eyp4rv2Mflvza6RjyMiRjyLqFHL5qyLse2NtNjhOL3TROdJ4rpucac3lrn3Kzui/j5fuIBI6JGnNpcWaPmjafCYSNPqsuG3yzvHjEr6OSpNG4lydOcard7cff5v4Ufyd/D3FoYmZjZlMbse1Tg/FeHua8Ci1GlyYLfNHLwmPF0Gn1WPPXlO1vGGWACOlAAAAAAAAAAAAAAAAAAAAAAAAIzxh97uofkL96PPZ6E4w+93UPyF+9Hns3U6fu7v4V/ymf/c/6gABm6kAAAAAAAAJBw7oV+sZsa4pqqDTtn5LyXvZr9L03J1LMrxqItuT6vwivFs9CaPpONpWHXj0RS26yl4yl5sxtbaHP8c4tGkxd1jnfLaP/mPNl4mLTiY9dFMVGEEkkjKAND53a1rWm0zMzM7zM+LkAAAAAAAAAAAAAAAAAAAABpdb1SGm4crOjsl7NcfN+b9y8SorbbLrJ2WScpybbb8Wyd65ousajmysiq1VH2a05dy8/wA5p/kjq/lV9b+RwHHacT1upmtNPk7qk7ViI6+q80NtLhxxNsle3br6IuCUfJLV/Kr638h8ktX8qvrfyKH7o4l/LX9k/wC16b9Wvui5tse7tIbP5y7zZfJHV/Kr638jsp4V1euxS2q28fa8P0GnNwTiN6T/AOLk3jnHJ79s036tfdgg33yc1Hyr/SPk5qPlX+krvuHi38nl9j7Zpv1a+7Qg3vyc1Hyr+sPk5qPlX9YfcPFv5PL7H2zTfq192iBvXw7qKXdB/wDMZlHDFza7a+MV5R6v9uxuxfDnGMtorGltG/jPLb3Y212lrG/eRP0Rmuudk4whFyk3skiyNKxb8bDhXdZzSXh+KvL8x94em4uHH7lX1ffJ9WzPPoXw78OzwztZcuTtZbRttE8oUut1v2jata7Vies9XIAOsV4AAAAAAADggfEeK6sxWpezbHf/AJl0ZPTU6xh+t4U4pe3D2odPFeH5zfpcvd5qzM8p5Si6zF3uC0bc45wrGRjyMiRjyOkrO8buYmNuTHkdEjvkdEjOOrF0SMrT9VzNNv7XHs2325oPrGS96MWR0SPbUres1tETE9YllW9qWi1ZmJjpK6dG4hwtVjywfJeo7yqk+vxXmjfnnJTnCcZwnKE4veMovaUX5pon+icewjOvF1hqDbUYZSW0JflpfNfv7vgUmq4dem98UTavjHjC80vEa32pkmIt4T4Ss8HXCyFkIzhJSjJJpp7pp+K2Owq1pExIAA9AcGn1PXtG0qO+dqOPQ9t1Gc1zNe6Pe/zCImZ2iJmfKHkzEeLcgq/L9LnCNE1GqeVkLb51VWyX6xwZ8Yvpe4SvtULFmUJ/h2VJxXx5HJ/sN32fPtv3VvZj3lPzQtMGDgajg6ljQycLJrupl3Tg918H5NeKM40zExMxMbSzAAAAAAAAAABGeMPvd1D8hfvR57PQnGH3u5/5C/ejz2bqdP3d38K/5TN/uf8AUAAM3UgAAAAAd2Pj3ZN9dNMHKyctoxXizpSbaSW7fcXVwZwysClZmTD/ALxYvZT/AAIvw+LPJnaFZxTiWPQ6ebTtN55VhuOGOHqtHxPa2lfNb2T/AIL3Ik4OTRM7y+Z58+TPlvkyW3tad5kAB41AAAAAAAAAAAAAAAAAAAGFm6hgafUrc3Moxq3NRU7rI1xcnu9t5Ndehmnm7/tBalNVaDp0Z+zKV19kffHaEH+1gXj8reFf6waZ/eqv9Q+VvCv9YNM/vVX+o/PYDk92foT8reFf6waZ/eqv9Q+VvCv9YNM/vVX+o/PYDkbP0J+VvCv9YNM/vVX+ofK3hX+sGmf3qr/UfnsByNn6Hw4g0OyKnXquHOL7pRug0/g0z7+zujf0jjfrY/5nj/hK12aRGL/8O2cV/i/iSfodFpuB0z4MeSM0x2o322cTrfijNpdVmwzp4nsW2id3pr7O6N/SON+tj/mFrmjtpLUcZt933WP+Z5lODf8Ah2v6/wDRF/GOX+Wr7vVsZxkt4yTR9nmLTdX1HTLo2YmRKGz3cd/Yl8V3MvfhniGnW8Nz2UL69lbX5N9zXuZVa7hWbSR294tTpMx4fV0HCuP6fiFu7ms0ybcqzPX6JOACrX4AAAAAAAAAAAAArziPTnj5HbxX3O17v3S8f095FpFw5mLVl49lNm/LJbbrvT818Cps3GtxMm3HtW04focX3SXuZd6DURevd2n5qx7w57iGm7u/eVj5bT7NfI6JHfI6JFnCtdEjokd8jokZwS6JGPbCNkXGS3T70ZEjpkZw8Y+n8Qa5w9by4uS3S3v2U1zQf5vD37bE+wvSvjuKWbptkWkt5VSUk349Jcu36Sv76o2wcJLo/HyIzdVKqbhLvX7TRk0WmzbzakRbzjkkYtZqMO0VvO3lPNfT9KfD6jv6vmt+XJH/AFGk1D0u0Vwn6rpkn09mds0tn74xT3/SUrffCmO76vwXmaO22dsuaT+HuI/3ZpKTzibT5TKwxavVZY3mYrXz2TnWPSVxVqXNCOa8Wp/g467N/WW8v2kBlKU5OUpNyb3bb3b+I2Gxuphx0jatIj9kjtz4zP1cJbtFt8T+i+Oh8Oy1KOpO22lQ7eDjtB88lH2H39G/HvKl2N5m8Sa7nYFOBlajdbjVbctcn06d27XWW3huYZceWb45peIiJ3tE+LKt6xE7xvMxybrgLii3h/W6ZWWNYd8lXkx36JPop/GL6/Dc9dJprdHhBItzg30iavpMKMLUMa7JwoJRjNRfa1R8NvxoryfXyZB1+l7f+JTbfb5o827Dl25T08JelQdcJxnCM4veMkmn3dGdhSpgAAAAAAACM8Yfe7qH5C/ejz2Xp6RLbKuC9asrk4yjTFqS8PbR47+zOqfS7P0mdbbR0dFwbjGLQYb4745tNr77x9FoAriHEWqR2XaxfximbCniu9P7rjQkv+FtP9u5nGSq/wAXxNoLzEWi1fWU3BosbiLTbtlKcqpPbpNdP0rf9puoWQsipQmpJ9zT3T/QZRMT0lcYNdpdRG+LNWfTfm+wCa8IcMz1TI9ZyItYtb+vLyXuXiezO0PdZq8OkwWy5J5RHvPk3fBPC/O4allw6LrTBrx/Gf8AAtk+IQhXGMIxSilskvA+yPaZmXzHXa3LrNRbLefSI8ocgA8QwAAAAAAAAAAAAAAAAAAAAAPI3p8nJ8X4EW+i0qtpe922Hrk8h+ntbcY4Xv0qr/1bAR1hSQADMAAAAAWDwVY3Rm1+EZwl9ZNfwJwQXgmLVedLwcq1+jf/ADJyd3wmZnQ4t+u3/b5J8RRWOL6nbpvH/AACyUbklHB2oPC4gxG5PkufZTXnz9F+3Yi5vuF8SeXr+nVx6ctysb8lX7X7dtiLropOkz9rp2JT+GWyV1+mmn8XeRt7vSSYC6JA+ePskdOYAA9AAAAAAAAAABwR3iLRvsli81TUcmpN1S8/OEvc/wBhIgZY72peLVnaYneGvLjrkpalo5TG0qDryVOc6rIuu6DcZwl3proz6kSvjzh/nh9lcaO04JK9LxXcp/Fdz9xWtOpWwSVi5159z/mdTpskZ8UXr16Wj1chqa202aceTp1ifOG4kdEj4hl49u3LNJ+T6M+5G/aY6xs8i0TG8S6JHTI7pHTIygdTNPqigqOf8NfNX43uNpdZCqEpzeySItkXzvsc5fmXkjKsEdfRG7LJ2ScpPds+NjKyauSx7Lo+qMZ7JbswmJ3lb47RNY2jw5Q42Gx0zyaIfhbvyXU4xI5+pZlOHg48rL7pqNcIreTf8EvF+BjaYrEzM7RDZEWt4M7FxcnMyqcXGpnbfbLlrrgt5Sfu9y8X4F88N+iHFrrrv1y122NbvGrk4wj7pSXVv4bfnJdwLwJh8L4XPY43ajdFesZHft49nDfuiv297LAKHVcQveZrjnasePjKfi08RETbnPk1eDo2k6eksPT8ejptvXXGLfxaW7NpsvIArJtMzzmZ9ZSYiI8HIAD0AAAAAAABB/SV94+uf2Ef8cTxUe1fSV94+u/2Ef8AHE8VAAAAMjHy8nGlzU2yg/HZ9H8THMvCw7szIjTWur734JebPY33jbqd9OGJvF+z2ee++ye8M6pLPyoV5tbVMWu0tgvDy2Z6u0a3TbMClafOEqYx5Vy+Hua8GeZcLDpw8eFNS2S734t+bN1p2p5um3q7FulCXivCS8mvE3zjmaxz5qfP8VanPlrTNab4q8o8/q9LDciPDvFWLq6VU9q8lR3cPCXm4kuNExMcphZ4c2PNSL0tExLkAHjaAAAAAAAAAAAAAAAAAAAAAB5g/wC0FgcuboOel/vKbqZP+zkpL/Ez0+RnijhPSOKMGrD1KNjrrvVsXXLlkpKLj39emzA/PwHsj7R/A/4ub+u/kPtHcD/i5v67+R7+73tekvG4PZP2juB/xc39d/IfaO4H/Fzf138h+52vq8bA9k/aO4H/ABc39d/I4+0dwP8Ai5v67+Q/c7X1UJwfW46XZJr598mn5pJL95LC6sP0Y8NYWNDHpjkKEN9t7N31e/kZP2vNB8r/AK51Gk4zpMOnx45i8zWOe0Pn/EfhziOq1ubNE0iLW3jefBRYL1+15oHlf9f+Q+15oHld+sJP3/o/y3Q/wnxL82P3UbCE7JxhXBylJpRilu233JbF3cFcMT0umWXlQ2ybVso9/JDv26eL8SS6bw9o+mPmxcOEJdfbe8pdffLd7G6KfiPF7amndY6zWnjv1l0XB/hymiyRmzWi+SOkR0hyACldSAAAAAAAAAAAAAAAA6ra4W1zhOKlGSakmt00+mzPOPEOlS0rVcjF6uCfNW34wl1X6O5+89JFVekrCXJgZkYrpKVU34vf2or9jLPhWecepiu/y3jZTcZ08ZNLN9vmpO8SqRhXWwW0ZyS9zDOtnVcnJUmY8Xd69kp/PT+KX8DiWpXJNtQ2Xjs/8zEk9t2zT5OR2j5Y/NX7TGax5Ql4ovees7R1l3ZepXZElukoruS/eYbun7jqB5tCfFaxtyYeoytljuSm04tPp5PoRyUpSfVt/F7kpvjzUWrzgyKmnJ1hO0+3ZmNukh6x9F3Ai0LBWp51X+0MmtbRkv8AcVvry/lP8L9BXPoj4JepZsdczan6pjWf93i+622P4X5MP2s9RlBxHVdqZxUnl/qmFpgxbfNMfQABVJQAAAAAAAAAAAAAg/pK+8fXf7CP+OJ4qPavpK+8fXf7CP8AjieKgAByk20l3sPJnxl901WXWQrri5Sk9kkWbpOmV4GOo9HZLrOX8F7kYWg6QsStXWx+7TXRfir/ADJGScVNucuV4txDvbThxz8kTzmPECW/QGfjU7LnkuvgbojdQWtFY3d+JGeO42Qk42JpqSezT9xbnDfEsc5LGyWlel0l3Kf8ypz7rnOucZwk4yi90102Pb462rt4+Et+h4hl0mWLRO9Z6w9Egi3DeurU8fs7WlkVr2v+Jea/iShEC1ZrMxLvcGfHnxVyUneLQ5AB43AAAAAAAAAAAAAAAAAAAAACtdb9IFmj6ldhXaTJuD3jPtdlOL7pL2fH95qftrQ/oiX63/pN/wAd8M/ZbB9axob5WOm4pLd2Q73H4rvR59J2HHhvWJ25x1cTxfiHFtFqrVjL/h250nsx7Lj+2vD+iZfrv+kfbXh/RMv13/SU2Dd9nxeSq/EPFP1o/wDmFyfbXh/RMv13/Scx9KsZSSWkSbb2S7X/AKSm+httLxuex3SXsx+b73/I8nBhiP4XteP8UtMR33/5hdHy+j/R7/WfyOfl9D6A/wBZ/IrYGvuMfkk/fvEf1Y9oWT8vofQH+s/kPl9D6A/1n8itgO4x+T3794j+rHtCyFx9DfrgS+v/ACNni8a6Vc1G1WUvbvlHeO/lutypAeTgpPhLOnH9fWd7WraPKY/s9C0ZNGTXGym2M4PucXujvKD07U8zTrlbj2uPVc0fwZe5oubRtWq1TDV8IuLT5Zxf4Ml4b+JGyYppz33jzdNw3i2PWxNZjs5IjeYbcAGpbgAAAAAAAAAAAADgrz0kv/Y2Kv8A8uP+CRYhTXpH1GF2bi4cHv2EHKf5U9tk/glv+cmcPxzfV4tukTvP7K3iuStNFl38Y2hWbOqTSTbfRH1ZOMItyeyNNk5ErXt3R8F/mdju47Fjm0+Uebrysl2Nxj0j+8wvA+pHz4GK0x1itYiIAAGx8WNKubfhFnHBvCmXxRrFWHVvGiO08m7wrr92/wCE+5Iy8XS8/VsmrT8GrtL73yxXcorxlJ+CS72ereEeFMDhjSYYeN7dktpX3NbStn5+5LwXgVXEtXGGvZrPzzHTyWehwzaO1MfLu3uBg4unYePh4tSroprUK4Lwiunj3+9maAcxvMzM785XAAD0AAAAAAAAAAAAAEH9JX3j67/YR/xxPFR7V9JX3j65/YR/xxPFQAmfD2jb8uXfH+zi/wB7/ga7QdIeZarrY/cYP6z8vh5liJJJJLZLuN+Km/OY+jn+LcR7EThxT809ZjwcgHdRU7Jde5d5IctNtt5l2Y9PM+eS6Lu95sAkkkkDZEbI1rTaQAHrFmYGbdg5VV9T2lFrdea8mXlgZtWbiU5FT3jOKfwfivzFAk24N1V4+U8OyX3O5+z7pfzNGem9d46wvuB66cOaMN5+S87R6StYAEJ2wAAAAAAAAAAAAAAAAAAAAA4fUpvjrgyztLdU0+vm5t5X1RW738Zx/ii5A9mtmZ48lqWiY/eELXaHDrcE48kfSfKXj0F58Vej+nOlZl6by1ZD6zq7oWPzXk3+hlOW6Xn0ZUsW7HnVbF7SUltsvP3ryfiWWPLS8cp284fOdfwrVaPJMXpvXflaOjFx6J32qEfzvyRLa64VVxhBbJI6sbGrx6+WPVvvl5mQe2nf6I2OnZj1AAYtgAAAHiTDReEsvNcbcpSpp70n8+XwT7l72Y2tWsbzKTptJn1N4pipM+c+ENTouiZOq5HLBONUX90s26L3LzZdGHiUYeNXRTDlhBbJf+/MYuJj4lMKaK1CEe5L+PmZRCyZJvPp4O74bw3HosfnktHzS5ABqWgAAAAAAAAAAAMe/Jx8et2XWwrgu+UpKKX52V5rfpG0/GjKvT4+sW93O1tWv3Nm7Fp82W21KTPqjZ9XgwV3yXiPRK9f17F0fDlbY1K2Saqq36yl/kvFnnHUNRnfkXXWz57bJOUn4bs+NS1XO1HIndk3SnOXe35eS8l7jUM6XQ6KumrMzzvPWXK67W21mTbpSOkebrtsnNtye5iyO+R0SLBrx7Rs6ZHz4H1IQjOcowhFylJpJJbtt+C955MxEbylViZ6Pk22i6HqOt5sMXCpc5Pbmk+kIL8ab8F/7ROuG/RjquoShfqXNh4/fyNfdpfBP5v5+vuL50nR9P0jEji4OPGqtd+3VyfnJvq2VWr4pjxxNcUxa3n4QsdPor32teJrX/lqOFeE8Dh3EcKvumRNLtr2tnL3LyivBEsOAc5kyWvebWmZmeczK6pStKxWI2iOjkAGLIAAAAAAAAAAAAAAABBvST94+uf2Mf8AHE8f6VplmfkKK6Vx6zl5fzPY/H+PPJ4P1eiG3NOqKW/5aPP+DhU4WPCmpdF85+LfmzZjp2p9IVXE9dGmx9mv8do5O+mmumqFdcUoxWyR2g5jFykkl1ZL6OOtebWm1p3meczL6rrdkkl+k2sIKEVFdyPmqpVx28fFnYZxG31RL37U+kAAMmAAAB2VWSqshZB+1Fpr8x1gdYe1tNbRMTtMc4X3peZHNwMfIT+dFb/HxNgQDgbN58fIxJPrCXPH4S71+Zk/K29ezaYfR9Dn7/S4snjMc/q5ABimAAAAAAAAAAAAAAAAAAAAADgwszT8PNr7PJojZHw3XVfB+DM0CJmOe7C9KXrNbViYnrEwrvO4Fi+aWHkteULFuv0r/Ii2TwxrePzb4jml4walv+bvLuODdXPePKVPn4FocszNYmkz+VQE9O1Ctbzw74rzdcl+9HXDDy7HtDGtk/JQb/cegtl5DlXkZ/aZ/KhT8NY9+We23lsoqnQdZve0MC5flR5P8WxIcPgfPtaeTdCmO3cvbl/BFq7IGNtReem0JOH4e0dJibza/pPRH9M4b0vT9pQq57V/4k+rXw8F+YkHcAaZtMzznddYsGLDWK46RWPRyADxtAAAAAAAAAABwRfV9K17J7T1PXJ0Ra/3bqj+ya2aJScGVLTWd4iP3jdryY65KzWZmI9JmP8AhRep8E8W2SU7LY5kt317Ztr9ZsRfI4W4ip35tKyHt+LHn/w7np042RYY+KZ6REdmm0eipycE097TPbvv6zu8pT0PWlvvpeYv/wBM/wDIxVpGrSe0dOym/JVSf8D1vshsjfHGcn6VWuOB44/9svJUeHdfsaUNIzXv/wDZml+1G0xfR9xXlSj/ALP7KLe3NbOMdvit9/2HqHZeRyYW4xqJjlSsf1SKcJw162tP0Ufpvohm2palqSS3614633/55r+BZujcK6FosV6lhQjYls7pe1Y+mz9p77b+KXQkYIObV6jN/HkmY8vBOxabDi/hpG/mAAjpAAAAAAAAAAAAAAAAAAAAAAjnFcJz4f1CMYttwWyXV/ORQnqeV9Ht+qz078TjlXkbKZOzExtuqtdwyNXkreck12jbZ5j9Ty/o9v1WbSjTMytbvGt5n/ws9EcsfIcsfJGyM+3ggW+H6TG3fz7PP/qWZ9Gt+qx6lmfRrfqs9AcsfJDlj5I9+0z+Vh+G8f69vZ5/9SzPo1v1WPUsz6Nb9VnoDlj5IcsfJD7TP5T8N4/17ezz/wCpZn0a36rHqWZ9Gt+qz0Byx8kOWPkh9pn8p+G8f69vZ5/9SzPo1v1WPUsz6Nb9VnoDlj5IcsfJD7TP5T8N4/17eyouFYZeNrNDlTZGE4yhJuL22a3X7UW8cbLyOTTe/bnfbZc6DR/ZMPdxebRvvEy5ABgnAAAAAAAAAAAAAAAAAAAAAAAAAAAAAAAAAAAAAAAAAAAAAAAAAAAAAAAAAAAAAAAAAAAAAAAAAAAAAAAAAAAAAAAAAAAAAAAAAAAAAAAAAAAAAAAAAAAAAAAAAAAAAAQPM4i4ks4h1PStJ0jBvWFRjWW25GXOhv1jm2UVGuzu5HuTwpbVsbTqOPdZzdU0bWsiDxsD1S3Doy5181XaOak8fo9t10kBYN+uZmLqPDWBk4lUbtR7dXOFrlGqVNTsai3Fcyb6b7IysTifh3N1GzTsXWMK7Lhzc1Fd0ZTXL85bJ968fIjuoPI1LiHgjUMfCy1TGWdKztaZ1urnocY9qpLeG76Lcr7TVr+bq3CNuZHWp5dOpzsz8eenxpw8Rypti1XZGtNxbe2/NJNdX1AuPD4o4czrsunE1nCusxoylfCu6EnXGHe2k+5eLIxpXpA0/WND1POwsnTndiZFkHVZlKMI1q51QsnNJ8qsS5o9OppeDfW8HWsbS8DD1F6VXjXpwz8N02YDUk41V37JWwm/BbvpvuamePnWcC8WaPDSs9ZdWp5M+X1axK2N2a7YuqW201y9Xy77IC2tQ4j0DTcvHxM7VsPHyL9uyqttjCct3stk34vohkcScP4up1aZkath1ZtnLyY87oxslzd20W9934eZAMqyOlcScU/ZDh3N1GGqTxJYnY4vrELa4VRrdUpP2Ycsk5e20uu506/63pvE9+Ro+HqM8vKycN5GLZhu7Cy1Hlh2kbktqZ1xXe2luu4CxbeJOH6dUr0u3VsOGdPZRxpWxVrcuqXLvvu/BeJ85/E/Dum5lWHnaxhY+TZtyU2XRjN83RPZvub7inHoOpW5+s6Ln5Wq0xzdcsyq3Tp0bqpwnara7fWOV8vIkk92mttkZPHr13Ls4uwpLWFGzC7PT8bCwI305cXTvJ3Wuub3U21tzRaW227At3I4i0HGz69Pv1XEry7LI1wx5WxjY5zW8Uot77vwOLOI9Ar1WGlT1bDjnz25cV2xVr3W6XLvvu11SIpwvpd0OKeJM3JwpxlbjaZGu6ytrm5KXzKMmuu0u/bx7zV6JZDTdQz9Lz+Hc3Jy7+Ib8qvIWL2lLhbZz15Dul7Mezi0tt+ZbdEBI9M460XK1HO07LzcTFy6tTtxKMed8e0uVeyUknt85voiblJZ+iZr4U46jDTLnk38QzvoiqZOyxRsrcLILbdpbdGi7QAAAAAAAAAAAAAAAAAAArvQ+JOL9aqqzMfQ9NjhTyrqueebYreSm2VUpcipa39ltLc3mm8TY+TXrd2X2WLTganZhuydi5XyKO0m3ttu5bJEa9HnC2Ng6dXqF+JlU6hLKzudWWXRXLLJnyvspPlW8dmnt17zUZuj6rfwtx9RXg3u63XLciitwcZXQrdU9699ubm5Wlt3sC2vXMT1t4jyK/WFV2vZcy5+z35efby36bmqw+KOG86WXHE1rCveLCU71XdGXZxj3yls+iXi+4rfMlqHE2t6/Zp2BqGNG7hO7EovycezGTyJzk1Fdok91v3/AKDUafpGZqGFz2Wav6zp2hZdEMW3TFjQi7qezdEZxiu06pNKO6ewFvYPFXDWo25FeFrWDfOivtLY13Qm4QXfJ7PuXizU8LccaNxBgZ2VDMxI+q33xujG+MuSmuyUIWzfTaM4x5k+7Y0OBpGRj5fo0den2VrG02+rJaqa7JSxo+xY9vZ3ku5+JH1hajkcFcS6PXpOY8rH1m6+ymdMoRyaHnO9wqnJKM+etdyfjsBYOlca6VrPEM9N0zJxsumGnvJlkU2qxKfacnZtLu6dSZlXaFkrU+PcjUcbSM/GxloUKHdkYk8ZTsjdzci50t3FfyLRAAAAAAAAAAAAAAAAAAAAAABiZ2Q8XDysjl5uypnZy77b8ib23Ms1urwss0rUIQi5Sli2qMUt224tbLbxAi+k8YT1ezQ6cPCjO7J0+jNzvunsYdV9fPGLe3tTk+kY9OibGqcYx0vHV+T6l2T1yOBOyORvGqt9XO1tLlnFd8fDzIVw5w1k8Kafwhq+Dg5crLsPGxtbx+Wc7pK6KcbHHbfeib2223UN14HTqOn59WHlW2aPmZEIcdrLlTDHlZOePHZ9pGO3tR9/cBbmJxBoWbp1mpY2q4luHXzdpkRti64cvV80t9lt47nzp/Eeg6ni5OVg6riZFGPu7rK7YyjWkt95Nd3TqVhdZrNy421rSNLy6astadVTG3Eaus7KTV98KLUnJqEvZTXtOJjabi6hkZvGd1f2ay6cjh2uqnIzcP1ey62PbexCMa6+bbm6brm6+QFrabxNw7q2TbjadrGHlXVxUp103RnJR89k306nGJxPw7m6jZp2LrGFdlw5uaiu6Mprl+ctk+9ePkQjB0nJx8v0aSq0+yCxtNvqyGq3FVc2NH2LHt7O8l3PxInpn2fzdX4QtzFrUsunVJ2Z9E9PjTh4jlTbFquyNabi29t+aSa6vqB6BAAAAAAAAAAAAAAAAAAAAAAAAAAAAAAAAAAAAAAAAAAAAAAAAAAAAAAAAAAAAAAAAAAAAAAAAAAAAAAAAAAAAAAAAAAAAAAAAAAAAAAAAAAAAAAAAAAAAAAAAAAAAAAAAAAAAAAAAAAAAAAAAAAAAAAAAAAAAAAAAAAAAAAAAAAAAAAAAAAAAAAAAAAAAAAAAAAAAAAAAAAAAAAAAAAAAAAAAAAAAAAAAAAAAAAAAAAAAAAAAAAAAAAAAAAAAAAAAAAAAAAAAAAAAAAAAAAAAAAAAAAAAAAAAAAAAAAAAAAAAAAAAAAAAAAAAAAAAAAAAAAAAAAAAAAAAAAAAAAAAAAAAAAAAAAAAAAAAAAAAAAAAAAAAAAAAAAAAAAAAAAAAAAAAAAAAAAAAAAAAAAAAAAAAAAAAAAAAAAAAAAAAAAAAAAAAAAAAAAAAAAH/9k=;" parent="1" vertex="1">
          <mxGeometry x="490" y="850" width="106.63" height="60" as="geometry" />
        </mxCell>
        <mxCell id="-FWxgoRZEaUpRLydqsQy-5" value="" style="endArrow=classic;html=1;rounded=0;" parent="1" edge="1">
          <mxGeometry width="50" height="50" relative="1" as="geometry">
            <mxPoint x="600" y="886" as="sourcePoint" />
            <mxPoint x="660" y="886" as="targetPoint" />
          </mxGeometry>
        </mxCell>
        <mxCell id="-FWxgoRZEaUpRLydqsQy-6" value="" style="endArrow=classic;html=1;rounded=0;" parent="1" target="qi-xgSBIzrGGU9BenloK-36" edge="1">
          <mxGeometry width="50" height="50" relative="1" as="geometry">
            <mxPoint x="140" y="894" as="sourcePoint" />
            <mxPoint x="90" y="920" as="targetPoint" />
          </mxGeometry>
        </mxCell>
        <mxCell id="-FWxgoRZEaUpRLydqsQy-7" value="&lt;font face=&quot;Verdana&quot;&gt;&lt;b&gt;Logging&lt;/b&gt;&lt;/font&gt;" style="text;html=1;strokeColor=none;fillColor=none;align=center;verticalAlign=middle;whiteSpace=wrap;rounded=0;" parent="1" vertex="1">
          <mxGeometry x="662.5" y="874" width="80" height="30" as="geometry" />
        </mxCell>
        <mxCell id="InTtoNEMabIDj6Jb1E4s-1" value="" style="endArrow=classic;html=1;rounded=0;" edge="1" parent="1">
          <mxGeometry width="50" height="50" relative="1" as="geometry">
            <mxPoint x="600" y="810" as="sourcePoint" />
            <mxPoint x="660" y="810" as="targetPoint" />
          </mxGeometry>
        </mxCell>
        <mxCell id="InTtoNEMabIDj6Jb1E4s-2" value="" style="outlineConnect=0;dashed=0;verticalLabelPosition=bottom;verticalAlign=top;align=center;html=1;shape=mxgraph.aws3.efs_share;fillColor=#E05243;gradientColor=none;" vertex="1" parent="1">
          <mxGeometry x="665.75" y="785" width="58.5" height="50" as="geometry" />
        </mxCell>
        <mxCell id="InTtoNEMabIDj6Jb1E4s-3" value="&lt;b&gt;NFS-Share File System&lt;/b&gt;" style="text;html=1;strokeColor=none;fillColor=none;align=center;verticalAlign=middle;whiteSpace=wrap;rounded=0;" vertex="1" parent="1">
          <mxGeometry x="645.05" y="840" width="107.5" height="20" as="geometry" />
        </mxCell>
        <mxCell id="InTtoNEMabIDj6Jb1E4s-5" value="" style="endArrow=classic;html=1;rounded=0;exitX=0.5;exitY=0;exitDx=0;exitDy=0;" edge="1" parent="1" source="6NimvU5wnSPPtsDhxzjk-35">
          <mxGeometry width="50" height="50" relative="1" as="geometry">
            <mxPoint x="355" y="650" as="sourcePoint" />
            <mxPoint x="355" y="650" as="targetPoint" />
            <Array as="points" />
          </mxGeometry>
        </mxCell>
      </root>
    </mxGraphModel>
  </diagram>
</mxfile>
